# This file uses meters as units for non-parametric coordinates.

g default
v 41.662579 -0.000010 -24.391819
v 15.913684 -0.000010 -41.090893
v -15.913702 -0.000010 -41.090893
v -41.662601 -0.000010 -24.391809
v -48.449009 -0.000010 2.627839
v -34.028606 -0.000010 29.647495
v 34.028584 -0.000010 29.647488
v 50.589844 -0.000010 2.627835
v 75.572052 235.144073 -53.755215
v 28.865950 235.144073 -87.689171
v -28.865969 235.144073 -87.689171
v -75.572060 235.144073 -53.755203
v -90.121918 235.144073 1.151113
v -96.746208 235.144073 56.057423
v 96.746208 235.144073 56.057415
v 90.121918 235.144073 1.151107
v -73.130676 71.935295 45.336800
v -94.147881 138.092636 55.032444
v -87.705582 138.259552 2.030588
v -73.736694 69.352646 -11.720344
v -74.699516 138.293777 -53.086956
v -59.825676 69.545158 -43.781265
v -28.462528 138.335632 -86.684654
v -24.200356 69.761101 -70.011948
v 28.462511 138.335632 -86.684662
v 24.200331 69.761101 -70.011948
v 74.699493 138.293777 -53.086971
v 59.825645 69.545158 -43.781265
v 87.705566 138.259552 2.030569
v 73.736687 69.352646 -11.720301
v 94.147881 138.092636 55.032444
v 73.130676 71.935295 45.336796
v 33.641899 -0.000010 -18.890945
v 12.850059 -0.000010 -32.375195
v -12.850073 -0.000010 -32.375195
v -33.641918 -0.000010 -18.890940
v -43.192719 -0.000010 2.927018
v -27.477583 -0.000010 24.744980
v 30.517906 -0.000010 24.744974
v 40.600288 -0.000010 2.927015
v 71.923775 204.858704 -48.073807
v 27.472429 204.858704 -80.369591
v -27.472448 204.858704 -80.369576
v -71.923790 204.858704 -48.073788
v -85.771248 204.858704 4.181898
v -92.075745 204.858704 56.437580
v 92.075745 204.858704 56.437572
v 85.771240 204.858704 4.181892
v -59.051918 58.086655 37.413857
v -76.022987 111.507698 45.242943
v -70.820930 111.642487 2.444746
v -59.541264 56.001209 -4.906252
v -60.318726 111.670128 -42.061836
v -48.308327 56.156658 -34.547626
v -22.983065 111.703926 -69.191467
v -19.541420 56.331024 -55.728504
v 22.983046 111.703926 -69.191475
v 19.541403 56.331024 -55.728516
v 60.318707 111.670128 -42.061844
v 48.308308 56.156658 -34.547634
v 70.820923 111.642487 2.444731
v 59.541256 56.001209 -4.906217
v 76.022987 111.507698 45.242943
v 59.051910 58.086655 37.413853
v -43.964298 -0.000010 18.008387
v -16.792862 -0.000010 45.136082
v 16.792881 -0.000010 45.136082
v 43.964317 -0.000010 18.008377
v -93.992256 204.858704 50.291618
v -35.901840 204.858704 87.689171
v 35.901863 204.858704 87.689171
v 93.992271 204.858704 50.291599
v 78.826416 111.670128 43.329937
v 63.130840 56.156658 32.742027
v 30.034992 111.703926 74.745247
v 25.537344 56.331024 66.582138
v -30.034969 111.703926 74.745247
v -25.537323 56.331024 66.582153
v -78.826393 111.670128 43.329948
v -63.130821 56.156658 32.742027
v -49.624222 16.583204 28.823639
v -19.375124 16.634691 57.933540
v 19.375143 16.634691 57.933525
v 49.624241 16.583204 28.823639
v 17.632765 -3.771997 -30.630100
v -21.329460 -3.771992 -28.492142
v -38.962227 -3.771997 6.319850
v -17.632761 -3.771992 38.993885
v 21.329464 -3.771997 36.855923
v 38.962227 -3.771992 2.043930
v 23.802938 23.869633 -42.877357
v -23.802919 23.869633 -42.877365
v -47.605854 23.869633 4.181885
v -23.818764 23.843676 51.193081
v 23.787090 23.840445 51.203213
v 47.605854 23.869633 4.181893
v 23.859594 46.296890 -41.854137
v -23.859579 46.296890 -41.854145
v -47.842030 46.537327 3.068948
v -27.009996 41.031506 42.054039
v 20.643311 40.081810 44.373379
v 47.594223 46.340542 3.666085
v 21.923166 70.537788 -33.615944
v -20.726748 70.904869 -34.631207
v -43.260700 70.108421 -1.994249
v -27.550425 57.960873 27.258091
v 14.669379 54.852890 32.550461
v 41.887032 67.916435 3.083158
v 14.322237 96.578117 -12.856781
v -10.053378 98.372513 -15.912331
v -25.307831 90.350403 1.594646
v -17.889931 78.453415 20.058689
v 6.180669 75.321159 24.244638
v 23.413542 86.618080 7.855960
v -1.364666 94.996338 9.883464
v 41.662579 -0.000010 -24.391819
v 15.913684 -0.000010 -41.090893
v -15.913702 -0.000010 -41.090893
v -41.662601 -0.000010 -24.391809
v -48.449009 -0.000010 2.627839
v -34.028606 -0.000010 29.647495
v 34.028584 -0.000010 29.647488
v 50.589844 -0.000010 2.627835
v 75.572052 235.144073 -53.755215
v 28.865950 235.144073 -87.689171
v -28.865969 235.144073 -87.689171
v -75.572060 235.144073 -53.755203
v -90.121918 235.144073 1.151113
v -96.746208 235.144073 56.057423
v 96.746208 235.144073 56.057415
v 90.121918 235.144073 1.151107
v -73.130676 71.935295 45.336800
v -94.147881 138.092636 55.032444
v -87.705582 138.259552 2.030588
v -73.736694 69.352646 -11.720344
v -74.699516 138.293777 -53.086956
v -59.825676 69.545158 -43.781265
v -28.462528 138.335632 -86.684654
v -24.200356 69.761101 -70.011948
v 28.462511 138.335632 -86.684662
v 24.200331 69.761101 -70.011948
v 74.699493 138.293777 -53.086971
v 59.825645 69.545158 -43.781265
v 87.705566 138.259552 2.030569
v 73.736687 69.352646 -11.720301
v 94.147881 138.092636 55.032444
v 73.130676 71.935295 45.336796
v 33.641899 -0.000010 -18.890945
v 12.850059 -0.000010 -32.375195
v -12.850073 -0.000010 -32.375195
v -33.641918 -0.000010 -18.890940
v -43.192719 -0.000010 2.927018
v -27.477583 -0.000010 24.744980
v 30.517906 -0.000010 24.744974
v 40.600288 -0.000010 2.927015
v 71.923775 204.858704 -48.073807
v 27.472429 204.858704 -80.369591
v -27.472448 204.858704 -80.369576
v -71.923790 204.858704 -48.073788
v -85.771248 204.858704 4.181898
v -92.075745 204.858704 56.437580
v 92.075745 204.858704 56.437572
v 85.771240 204.858704 4.181892
v -59.051918 58.086655 37.413857
v -76.022987 111.507698 45.242943
v -70.820930 111.642487 2.444746
v -59.541264 56.001209 -4.906252
v -60.318726 111.670128 -42.061836
v -48.308327 56.156658 -34.547626
v -22.983065 111.703926 -69.191467
v -19.541420 56.331024 -55.728504
v 22.983046 111.703926 -69.191475
v 19.541403 56.331024 -55.728516
v 60.318707 111.670128 -42.061844
v 48.308308 56.156658 -34.547634
v 70.820923 111.642487 2.444731
v 59.541256 56.001209 -4.906217
v 76.022987 111.507698 45.242943
v 59.051910 58.086655 37.413853
v -43.964298 -0.000010 18.008387
v -16.792862 -0.000010 45.136082
v 16.792881 -0.000010 45.136082
v 43.964317 -0.000010 18.008377
v -93.992256 204.858704 50.291618
v -35.901840 204.858704 87.689171
v 35.901863 204.858704 87.689171
v 93.992271 204.858704 50.291599
v 78.826416 111.670128 43.329937
v 63.130840 56.156658 32.742027
v 30.034992 111.703926 74.745247
v 25.537344 56.331024 66.582138
v -30.034969 111.703926 74.745247
v -25.537323 56.331024 66.582153
v -78.826393 111.670128 43.329948
v -63.130821 56.156658 32.742027
v -49.624222 16.583204 28.823639
v -19.375124 16.634691 57.933540
v 19.375143 16.634691 57.933525
v 49.624241 16.583204 28.823639
vt 0.241617 0.670248
vt 0.127369 0.608159
vt 0.160390 0.516310
vt 0.265809 0.579874
vt 0.176413 0.461876
vt 0.287929 0.489632
vt 0.187597 0.393526
vt 0.298719 0.401099
vt 0.187699 0.320108
vt 0.298692 0.312642
vt 0.176680 0.251807
vt 0.287958 0.224150
vt 0.160648 0.197411
vt 0.265978 0.133927
vt 0.127797 0.105656
vt 0.241869 0.043644
vt 0.052249 0.275203
vt 0.059209 0.328140
vt 0.058892 0.384888
vt 0.051466 0.438319
vt 0.035004 0.484029
vt 0.003263 0.527069
vt 0.003489 0.185360
vt 0.036907 0.228741
vt 0.430301 0.613368
vt 0.409056 0.708048
vt 0.449919 0.514000
vt 0.460919 0.409494
vt 0.460574 0.303776
vt 0.449392 0.199660
vt 0.429999 0.100430
vt 0.408867 0.005802
vt 0.713335 0.730482
vt 0.603835 0.665017
vt 0.637275 0.581411
vt 0.743612 0.642027
vt 0.658821 0.520836
vt 0.772062 0.551156
vt 0.671790 0.451467
vt 0.786002 0.459155
vt 0.671746 0.374899
vt 0.786034 0.367503
vt 0.658674 0.305300
vt 0.772226 0.275451
vt 0.637129 0.244203
vt 0.744107 0.184463
vt 0.605004 0.159542
vt 0.714423 0.096055
vt 0.533851 0.333444
vt 0.543251 0.385838
vt 0.543612 0.440520
vt 0.535227 0.492694
vt 0.518599 0.540364
vt 0.481178 0.584010
vt 0.486288 0.243566
vt 0.515327 0.287291
vt 0.936198 0.708957
vt 0.902403 0.818429
vt 0.967628 0.594915
vt 0.984277 0.474475
vt 0.984257 0.352387
vt 0.967668 0.232154
vt 0.936588 0.118234
vt 0.903165 0.008800
vt 0.570843 0.974475
vt 0.587000 0.883257
vt 0.691177 0.903355
vt 0.683394 0.983506
vt 0.610412 0.796145
vt 0.710569 0.830819
vt 0.642082 0.709105
vt 0.743926 0.757539
vt 0.812574 0.802314
vt 0.780285 0.859776
vt 0.765972 0.913160
vt 0.765226 0.979045
vt 0.394041 0.951825
vt 0.415570 0.846013
vt 0.443276 0.742620
vt 0.477598 0.640221
vt 0.847985 0.816611
vt 0.815841 0.870334
vt 0.801878 0.921790
vt 0.803002 0.984226
vt 0.006518 0.764209
vt 0.020511 0.679708
vt 0.066984 0.693537
vt 0.057640 0.769613
vt 0.036556 0.607483
vt 0.089609 0.609432
vt 0.372968 0.956073
vt 0.304379 0.980988
vt 0.295403 0.929766
vt 0.374097 0.903738
vt 0.222633 0.986933
vt 0.226960 0.941290
vt 0.150790 0.982448
vt 0.144459 0.931379
vt 0.008362 0.840288
vt 0.059717 0.858229
vt 0.103249 0.698151
vt 0.092677 0.773386
vt 0.132634 0.623078
vt 0.298173 0.897401
vt 0.358527 0.861572
vt 0.224770 0.909947
vt 0.149941 0.888190
vt 0.104809 0.855759
vt 0.142513 0.708705
vt 0.132740 0.776826
vt 0.173086 0.652123
vt 0.300147 0.862635
vt 0.339427 0.818927
vt 0.226516 0.878003
vt 0.162470 0.848561
vt 0.147918 0.840154
vt 0.189334 0.733270
vt 0.184221 0.771762
vt 0.211247 0.697801
vt 0.278863 0.828336
vt 0.294678 0.793514
vt 0.236803 0.840039
vt 0.200024 0.815918
vt 0.197000 0.811398
vt 0.228475 0.757281
vt 0.246227 0.797825
vt 0.241617 0.670248
vt 0.127369 0.608159
vt 0.160390 0.516310
vt 0.265809 0.579874
vt 0.176413 0.461876
vt 0.287929 0.489632
vt 0.187597 0.393526
vt 0.298719 0.401099
vt 0.187699 0.320108
vt 0.298692 0.312642
vt 0.176680 0.251807
vt 0.287958 0.224150
vt 0.160648 0.197411
vt 0.265978 0.133927
vt 0.127797 0.105656
vt 0.241869 0.043644
vt 0.052249 0.275203
vt 0.059209 0.328140
vt 0.058892 0.384888
vt 0.051466 0.438319
vt 0.035004 0.484029
vt 0.003263 0.527069
vt 0.003489 0.185360
vt 0.036907 0.228741
vt 0.430301 0.613368
vt 0.409056 0.708048
vt 0.449919 0.514000
vt 0.460919 0.409494
vt 0.460574 0.303776
vt 0.449392 0.199660
vt 0.429999 0.100430
vt 0.408867 0.005802
vt 0.713335 0.730482
vt 0.603835 0.665017
vt 0.637275 0.581411
vt 0.743612 0.642027
vt 0.658821 0.520836
vt 0.772062 0.551156
vt 0.671790 0.451467
vt 0.786002 0.459155
vt 0.671746 0.374899
vt 0.786034 0.367503
vt 0.658674 0.305300
vt 0.772226 0.275451
vt 0.637129 0.244203
vt 0.744107 0.184463
vt 0.605004 0.159542
vt 0.714423 0.096055
vt 0.533851 0.333444
vt 0.543251 0.385838
vt 0.543612 0.440520
vt 0.535227 0.492694
vt 0.518599 0.540364
vt 0.481178 0.584010
vt 0.486288 0.243566
vt 0.515327 0.287291
vt 0.936198 0.708957
vt 0.902403 0.818429
vt 0.967628 0.594915
vt 0.984277 0.474475
vt 0.984257 0.352387
vt 0.967668 0.232154
vt 0.936588 0.118234
vt 0.903165 0.008800
vt 0.570843 0.974475
vt 0.587000 0.883257
vt 0.691177 0.903355
vt 0.683394 0.983506
vt 0.610412 0.796145
vt 0.710569 0.830819
vt 0.642082 0.709105
vt 0.743926 0.757539
vt 0.812574 0.802314
vt 0.780285 0.859776
vt 0.765972 0.913160
vt 0.765226 0.979045
vt 0.394041 0.951825
vt 0.415570 0.846013
vt 0.443276 0.742620
vt 0.477598 0.640221
vt 0.847985 0.816611
vt 0.815841 0.870334
vt 0.801878 0.921790
vt 0.803002 0.984226
vn -0.989543 -0.111237 -0.091817
vn -0.980621 -0.101838 -0.167364
vn -0.947943 -0.294763 -0.120497
vn -0.948872 -0.312861 0.041947
vn -0.816000 -0.091346 -0.570789
vn -0.756663 -0.284440 -0.588689
vn -0.304675 -0.101349 -0.947049
vn -0.284698 -0.305345 -0.908687
vn 0.304675 -0.101349 -0.947049
vn 0.284698 -0.305345 -0.908687
vn 0.816000 -0.091346 -0.570789
vn 0.754246 -0.282449 -0.592736
vn 0.980621 -0.101838 -0.167365
vn 0.949028 -0.290703 -0.121814
vn 0.989543 -0.111237 -0.091817
vn 0.950065 -0.307845 0.051068
vn 0.721549 -0.369000 -0.585838
vn 0.266976 -0.390089 -0.881223
vn -0.266976 -0.390089 -0.881223
vn -0.728545 -0.374785 -0.573374
vn -0.916336 -0.400396 0.003357
vn -0.895672 -0.409827 0.172666
vn 0.896810 -0.396972 0.195310
vn 0.920391 -0.390964 0.005275
vn -0.992419 -0.025571 -0.120211
vn -0.982802 -0.021947 -0.183354
vn -0.827307 -0.015542 -0.561535
vn -0.309496 -0.011165 -0.950835
vn 0.309496 -0.011165 -0.950835
vn 0.827307 -0.015542 -0.561535
vn 0.982802 -0.021948 -0.183354
vn 0.992419 -0.025571 -0.120212
vn -0.978431 -0.182050 -0.097629
vn -0.969688 -0.174047 -0.171505
vn -0.951087 -0.286654 -0.115166
vn -0.950412 -0.303861 0.066218
vn -0.810186 -0.167294 -0.561793
vn -0.761201 -0.280218 -0.584851
vn -0.301547 -0.165094 -0.939049
vn -0.284698 -0.305345 -0.908687
vn 0.301547 -0.165094 -0.939049
vn 0.284698 -0.305345 -0.908687
vn 0.810186 -0.167294 -0.561793
vn 0.764550 -0.283599 -0.578822
vn 0.969687 -0.174047 -0.171505
vn 0.949875 -0.286834 -0.124355
vn 0.978431 -0.182050 -0.097630
vn 0.952774 -0.301711 0.034536
vn 0.736958 -0.364838 -0.569022
vn 0.266976 -0.390089 -0.881223
vn -0.266976 -0.390089 -0.881223
vn -0.727118 -0.355461 -0.587321
vn -0.927407 -0.374047 -0.002073
vn -0.891868 -0.384712 0.237839
vn 0.908559 -0.384953 0.162272
vn 0.926782 -0.374221 -0.032146
vn -0.980770 -0.154736 -0.118945
vn -0.972351 -0.148874 -0.179916
vn -0.820878 -0.141747 -0.553233
vn -0.308434 -0.127968 -0.942599
vn 0.308433 -0.127968 -0.942599
vn 0.820878 -0.141747 -0.553233
vn 0.972351 -0.148874 -0.179916
vn 0.980770 -0.154736 -0.118945
vn -0.551447 0.176814 -0.815257
vn -0.609430 0.250473 -0.752236
vn -0.327570 0.222918 -0.918153
vn -0.284653 0.166597 -0.944043
vn 0.327570 0.222918 -0.918153
vn 0.284653 0.166597 -0.944043
vn 0.609430 0.250472 -0.752236
vn 0.551447 0.176814 -0.815257
vn 0.637991 0.364012 -0.678574
vn 0.336190 0.356846 -0.871572
vn -0.336191 0.356846 -0.871572
vn -0.637991 0.364012 -0.678574
vn -0.277524 0.149344 -0.949040
vn -0.535237 0.149226 -0.831416
vn 0.277523 0.149344 -0.949040
vn 0.535237 0.149226 -0.831416
vn 0.577920 0.563214 -0.590592
vn 0.331789 0.613683 -0.716456
vn -0.331789 0.613683 -0.716456
vn -0.577920 0.563214 -0.590592
vn 0.460408 -0.422097 -0.780935
vn -0.541426 -0.410279 -0.733845
vn -0.501452 -0.213434 -0.838446
vn 0.505040 -0.209112 -0.837381
vn -0.939301 -0.340222 0.044314
vn -0.984116 -0.176490 -0.019153
vn -0.460287 -0.421654 0.781245
vn -0.471429 -0.126314 0.872811
vn 0.541509 -0.409660 0.734130
vn 0.499820 -0.119867 0.857795
vn 0.939332 -0.340092 -0.044645
vn 0.989637 -0.143498 -0.005118
vn -0.508468 0.139976 -0.849627
vn 0.512921 0.160890 -0.843224
vn -0.988858 0.138359 -0.054923
vn -0.523270 0.382142 0.761680
vn 0.445741 0.431776 0.784146
vn 0.974725 0.223393 0.002660
vn -0.416487 0.439681 -0.795751
vn 0.474241 0.457662 -0.752091
vn -0.898595 0.421654 -0.121388
vn -0.486370 0.483960 0.727480
vn 0.309939 0.523139 0.793891
vn 0.880189 0.470217 0.064530
vn -0.246944 0.755977 -0.606232
vn 0.407881 0.751575 -0.518429
vn -0.707599 0.706606 0.003319
vn -0.387956 0.495737 0.777004
vn 0.208855 0.449815 0.868358
vn 0.703729 0.655285 0.274531
vn 0.011783 0.864190 0.503027
vn 0.989543 0.111237 0.091817
vn 0.948872 0.312861 -0.041947
vn 0.947943 0.294763 0.120497
vn 0.980621 0.101838 0.167364
vn 0.756663 0.284440 0.588689
vn 0.816000 0.091346 0.570789
vn 0.284698 0.305345 0.908687
vn 0.304675 0.101349 0.947049
vn -0.284698 0.305345 0.908687
vn -0.304675 0.101349 0.947049
vn -0.754246 0.282449 0.592736
vn -0.816000 0.091346 0.570789
vn -0.949028 0.290703 0.121814
vn -0.980621 0.101838 0.167365
vn -0.950065 0.307845 -0.051068
vn -0.989543 0.111237 0.091817
vn -0.721549 0.369000 0.585838
vn -0.266976 0.390089 0.881223
vn 0.266976 0.390089 0.881223
vn 0.728545 0.374785 0.573374
vn 0.916336 0.400396 -0.003357
vn 0.895672 0.409827 -0.172666
vn -0.896809 0.396972 -0.195310
vn -0.920391 0.390964 -0.005275
vn 0.982802 0.021947 0.183354
vn 0.992419 0.025571 0.120211
vn 0.827307 0.015542 0.561535
vn 0.309496 0.011165 0.950835
vn -0.309496 0.011165 0.950835
vn -0.827307 0.015542 0.561535
vn -0.982802 0.021948 0.183354
vn -0.992419 0.025571 0.120212
vn 0.978431 0.182050 0.097629
vn 0.950412 0.303861 -0.066218
vn 0.951087 0.286654 0.115166
vn 0.969688 0.174047 0.171505
vn 0.761201 0.280218 0.584851
vn 0.810186 0.167293 0.561793
vn 0.284698 0.305345 0.908687
vn 0.301547 0.165094 0.939049
vn -0.284698 0.305345 0.908687
vn -0.301547 0.165094 0.939049
vn -0.764550 0.283599 0.578822
vn -0.810186 0.167294 0.561793
vn -0.949875 0.286834 0.124355
vn -0.969687 0.174047 0.171505
vn -0.952774 0.301711 -0.034536
vn -0.978431 0.182050 0.097630
vn -0.736958 0.364838 0.569022
vn -0.266976 0.390089 0.881223
vn 0.266976 0.390089 0.881223
vn 0.727118 0.355461 0.587321
vn 0.927407 0.374047 0.002073
vn 0.891868 0.384712 -0.237839
vn -0.908559 0.384953 -0.162272
vn -0.926782 0.374221 0.032146
vn 0.972351 0.148874 0.179916
vn 0.980770 0.154736 0.118945
vn 0.820878 0.141747 0.553233
vn 0.308434 0.127968 0.942599
vn -0.308433 0.127968 0.942599
vn -0.820878 0.141747 0.553233
vn -0.972351 0.148874 0.179916
vn -0.980770 0.154736 0.118945
vn 0.551447 -0.176814 0.815257
vn 0.284653 -0.166597 0.944043
vn 0.327570 -0.222918 0.918153
vn 0.609430 -0.250473 0.752236
vn -0.284653 -0.166597 0.944043
vn -0.327570 -0.222918 0.918153
vn -0.551447 -0.176814 0.815257
vn -0.609430 -0.250473 0.752236
vn -0.637991 -0.364012 0.678574
vn -0.336190 -0.356846 0.871572
vn 0.336191 -0.356846 0.871572
vn 0.637991 -0.364012 0.678574
vn 0.535237 -0.149226 0.831416
vn 0.277524 -0.149344 0.949040
vn -0.277523 -0.149344 0.949040
vn -0.535237 -0.149226 0.831416
vn -0.577920 -0.563214 0.590592
vn -0.331789 -0.613683 0.716456
vn 0.331789 -0.613683 0.716456
vn 0.577920 -0.563214 0.590592
s 1
g Herb_Humweed
f 18/1/1 19/4/2 20/3/3 17/2/4
f 19/4/2 21/6/5 22/5/6 20/3/3
f 21/6/5 23/8/7 24/7/8 22/5/6
f 23/8/7 25/10/9 26/9/10 24/7/8
f 25/10/9 27/12/11 28/11/12 26/9/10
f 27/12/11 29/14/13 30/13/14 28/11/12
f 29/14/13 31/16/15 32/15/16 30/13/14
f 1/17/17 2/18/18 26/9/10 28/11/12
f 2/18/18 3/19/19 24/7/8 26/9/10
f 3/19/19 4/20/20 22/5/6 24/7/8
f 4/20/20 5/21/21 20/3/3 22/5/6
f 5/21/21 6/22/22 17/2/4 20/3/3
f 7/23/23 8/24/24 30/13/14 32/15/16
f 8/24/24 1/17/17 28/11/12 30/13/14
f 19/4/2 18/1/1 14/26/25 13/25/26
f 21/6/5 19/4/2 13/25/26 12/27/27
f 23/8/7 21/6/5 12/27/27 11/28/28
f 25/10/9 23/8/7 11/28/28 10/29/29
f 27/12/11 25/10/9 10/29/29 9/30/30
f 29/14/13 27/12/11 9/30/30 16/31/31
f 29/14/13 16/31/31 15/32/32 31/16/15
s 2
f 50/33/33 51/36/34 52/35/35 49/34/36
f 51/36/34 53/38/37 54/37/38 52/35/35
f 53/38/37 55/40/39 56/39/40 54/37/38
f 55/40/39 57/42/41 58/41/42 56/39/40
f 57/42/41 59/44/43 60/43/44 58/41/42
f 59/44/43 61/46/45 62/45/46 60/43/44
f 61/46/45 63/48/47 64/47/48 62/45/46
f 33/49/49 34/50/50 58/41/42 60/43/44
f 34/50/50 35/51/51 56/39/40 58/41/42
f 35/51/51 36/52/52 54/37/38 56/39/40
f 36/52/52 37/53/53 52/35/35 54/37/38
f 37/53/53 38/54/54 49/34/36 52/35/35
f 39/55/55 40/56/56 62/45/46 64/47/48
f 40/56/56 33/49/49 60/43/44 62/45/46
f 51/36/34 50/33/33 46/58/57 45/57/58
f 53/38/37 51/36/34 45/57/58 44/59/59
f 55/40/39 53/38/37 44/59/59 43/60/60
f 57/42/41 55/40/39 43/60/60 42/61/61
f 59/44/43 57/42/41 42/61/61 41/62/62
f 61/46/45 59/44/43 41/62/62 48/63/63
f 61/46/45 48/63/63 47/64/64 63/48/47
s 3
f 73/65/65 74/68/66 76/67/67 75/66/68
f 75/66/68 76/67/67 78/70/69 77/69/70
f 77/69/70 78/70/69 80/72/71 79/71/72
f 81/73/73 80/72/71 78/70/69 82/74/74
f 82/74/74 78/70/69 76/67/67 83/75/75
f 83/75/75 76/67/67 74/68/66 84/76/76
f 75/66/68 71/78/77 72/77/78 73/65/65
f 77/69/70 70/79/79 71/78/77 75/66/68
f 79/71/72 69/80/80 70/79/79 77/69/70
f 65/81/81 81/73/73 82/74/74 66/82/82
f 66/82/82 82/74/74 83/75/75 67/83/83
f 67/83/83 83/75/75 84/76/76 68/84/84
s 4
f 85/85/85 86/86/86 92/87/87 91/88/88
f 86/86/86 87/89/89 93/90/90 92/87/87
f 87/91/89 88/92/91 94/93/92 93/94/90
f 88/92/91 89/95/93 95/96/94 94/93/92
f 89/95/93 90/97/95 96/98/96 95/96/94
f 90/99/95 85/85/85 91/88/88 96/100/96
f 91/88/88 92/87/87 98/101/97 97/102/98
f 92/87/87 93/90/90 99/103/99 98/101/97
f 93/94/90 94/93/92 100/104/100 99/105/99
f 94/93/92 95/96/94 101/106/101 100/104/100
f 95/96/94 96/98/96 102/107/102 101/106/101
f 96/100/96 91/88/88 97/102/98 102/108/102
f 97/102/98 98/101/97 104/109/103 103/110/104
f 98/101/97 99/103/99 105/111/105 104/109/103
f 99/105/99 100/104/100 106/112/106 105/113/105
f 100/104/100 101/106/101 107/114/107 106/112/106
f 101/106/101 102/107/102 108/115/108 107/114/107
f 102/108/102 97/102/98 103/110/104 108/116/108
f 103/110/104 104/109/103 110/117/109 109/118/110
f 104/109/103 105/111/105 111/119/111 110/117/109
f 105/113/105 106/112/106 112/120/112 111/121/111
f 106/112/106 107/114/107 113/122/113 112/120/112
f 107/114/107 108/115/108 114/123/114 113/122/113
f 108/116/108 103/110/104 109/118/110 114/124/114
f 109/118/110 110/117/109 115/125/115
f 110/117/109 111/119/111 115/125/115
f 111/121/111 112/120/112 115/126/115
f 112/120/112 113/122/113 115/126/115
f 113/122/113 114/123/114 115/126/115
f 114/124/114 109/118/110 115/125/115
s 5
f 133/127/116 132/128/117 135/129/118 134/130/119
f 134/130/119 135/129/118 137/131/120 136/132/121
f 136/132/121 137/131/120 139/133/122 138/134/123
f 138/134/123 139/133/122 141/135/124 140/136/125
f 140/136/125 141/135/124 143/137/126 142/138/127
f 142/138/127 143/137/126 145/139/128 144/140/129
f 144/140/129 145/139/128 147/141/130 146/142/131
f 116/143/132 143/137/126 141/135/124 117/144/133
f 117/144/133 141/135/124 139/133/122 118/145/134
f 118/145/134 139/133/122 137/131/120 119/146/135
f 119/146/135 137/131/120 135/129/118 120/147/136
f 120/147/136 135/129/118 132/128/117 121/148/137
f 122/149/138 147/141/130 145/139/128 123/150/139
f 123/150/139 145/139/128 143/137/126 116/143/132
f 134/130/119 128/151/140 129/152/141 133/127/116
f 136/132/121 127/153/142 128/151/140 134/130/119
f 138/134/123 126/154/143 127/153/142 136/132/121
f 140/136/125 125/155/144 126/154/143 138/134/123
f 142/138/127 124/156/145 125/155/144 140/136/125
f 144/140/129 131/157/146 124/156/145 142/138/127
f 144/140/129 146/142/131 130/158/147 131/157/146
s 6
f 165/159/148 164/160/149 167/161/150 166/162/151
f 166/162/151 167/161/150 169/163/152 168/164/153
f 168/164/153 169/163/152 171/165/154 170/166/155
f 170/166/155 171/165/154 173/167/156 172/168/157
f 172/168/157 173/167/156 175/169/158 174/170/159
f 174/170/159 175/169/158 177/171/160 176/172/161
f 176/172/161 177/171/160 179/173/162 178/174/163
f 148/175/164 175/169/158 173/167/156 149/176/165
f 149/176/165 173/167/156 171/165/154 150/177/166
f 150/177/166 171/165/154 169/163/152 151/178/167
f 151/178/167 169/163/152 167/161/150 152/179/168
f 152/179/168 167/161/150 164/160/149 153/180/169
f 154/181/170 179/173/162 177/171/160 155/182/171
f 155/182/171 177/171/160 175/169/158 148/175/164
f 166/162/151 160/183/172 161/184/173 165/159/148
f 168/164/153 159/185/174 160/183/172 166/162/151
f 170/166/155 158/186/175 159/185/174 168/164/153
f 172/168/157 157/187/176 158/186/175 170/166/155
f 174/170/159 156/188/177 157/187/176 172/168/157
f 176/172/161 163/189/178 156/188/177 174/170/159
f 176/172/161 178/174/163 162/190/179 163/189/178
s 7
f 188/191/180 190/192/181 191/193/182 189/194/183
f 190/192/181 192/195/184 193/196/185 191/193/182
f 192/195/184 194/197/186 195/198/187 193/196/185
f 196/199/188 197/200/189 193/196/185 195/198/187
f 197/200/189 198/201/190 191/193/182 193/196/185
f 198/201/190 199/202/191 189/194/183 191/193/182
f 190/192/181 188/191/180 187/203/192 186/204/193
f 192/195/184 190/192/181 186/204/193 185/205/194
f 194/197/186 192/195/184 185/205/194 184/206/195
f 180/207/196 181/208/197 197/200/189 196/199/188
f 181/208/197 182/209/198 198/201/190 197/200/189
f 182/209/198 183/210/199 199/202/191 198/201/190
