# This file uses meters as units for non-parametric coordinates.

g default
v -58.194775 54.777496 -46.539047
v 35.256542 51.763275 -74.627098
v -33.074467 135.723511 28.351759
v 60.376854 132.709290 0.263701
v -83.714386 -7.980989 3.310417
v 69.176025 -7.980989 3.310417
v -83.714386 159.272797 3.310458
v 69.176025 159.272797 3.310458
v -78.636124 95.865669 8.063240
v -36.630184 86.603210 55.850014
v -54.347649 150.942703 -2.611460
v -12.341705 141.680237 45.175293
v 60.696072 0.734353 61.157928
v -47.194767 -14.738401 -46.059784
v 21.663307 162.588654 77.078300
v -86.227539 147.115875 -30.139397
v 20.327930 -0.311201 114.727669
v 107.131393 44.040909 -3.058259
v -116.869781 19.896099 21.227520
v -30.066326 64.248207 -96.558418
v 50.185398 73.104980 117.392136
v 126.603424 132.152969 -1.136740
v -55.333954 -2.312576 11.790594
v 21.084057 56.735435 -106.738289
v -41.099651 118.981438 93.918007
v 44.021450 -6.121869 72.031090
v -121.764435 89.194405 -49.538441
v -36.643314 -35.908897 -71.425346
v 11.132132 22.133116 83.504738
v -15.819905 -30.253019 -57.579483
v 83.614853 158.394928 19.062469
v 56.662815 106.008789 -122.021751
v 121.124268 62.235527 25.697601
v 96.462204 35.473354 78.701729
v 77.146530 104.689880 26.670918
v 52.484486 77.927711 79.675034
v -27.847504 39.533546 87.228500
v -91.906677 41.663158 82.153740
v -22.645489 69.079399 33.961796
v -86.704666 71.208969 28.887035
v -2.478216 43.325928 -58.591827
v 53.399708 48.825134 -89.917244
v 20.843897 74.571175 -11.504965
v 76.721848 80.070374 -42.830383
v 57.570408 105.225937 8.441748
v 47.858501 70.357857 61.580849
v -2.646644 125.224030 10.558331
v -12.358552 90.355949 63.697433
v -48.551411 64.263641 122.021751
v 36.720825 32.009087 87.100975
v -41.743389 154.995972 54.841248
v 43.528873 122.741394 19.920492
v -128.099167 68.592361 -78.018318
v -36.389637 33.034325 -109.794495
v -85.468002 86.269638 25.238722
v 6.241530 50.711601 -6.537443
v 158.829956 61.952644 -63.516350
v 77.259399 41.199867 -112.980888
v 96.708084 101.253761 22.438377
v 15.137522 80.500984 -27.026148
v 148.428772 164.973587 -57.853584
v 110.144104 218.917755 21.575916
v 74.280960 82.079727 -37.295578
v 35.996258 136.023926 42.133915
v 69.591080 143.079865 3.803109
v 18.142849 143.955093 42.354111
v 52.941738 85.495270 -17.108931
v 1.493498 86.370514 21.442062
v -58.194775 54.777496 -46.539047
v 35.256542 51.763275 -74.627098
v -33.074467 135.723511 28.351759
v 60.376854 132.709290 0.263701
v -83.714386 -7.980989 3.310417
v 69.176025 -7.980989 3.310417
v -83.714386 159.272797 3.310458
v 69.176025 159.272797 3.310458
v -78.636124 95.865669 8.063240
v -36.630184 86.603210 55.850014
v -54.347649 150.942703 -2.611460
v -12.341705 141.680237 45.175293
v 60.696072 0.734353 61.157928
v -47.194767 -14.738401 -46.059784
v 21.663307 162.588654 77.078300
v -86.227539 147.115875 -30.139397
v 20.327930 -0.311201 114.727669
v 107.131393 44.040909 -3.058259
v -116.869781 19.896099 21.227520
v -30.066326 64.248207 -96.558418
v 50.185398 73.104980 117.392136
v 126.603424 132.152969 -1.136740
v -55.333954 -2.312576 11.790594
v 21.084057 56.735435 -106.738289
v -41.099651 118.981438 93.918007
v 44.021450 -6.121869 72.031090
v -121.764435 89.194405 -49.538441
v -36.643314 -35.908897 -71.425346
v 11.132132 22.133116 83.504738
v -15.819905 -30.253019 -57.579483
v 83.614853 158.394928 19.062469
v 56.662815 106.008789 -122.021751
v 121.124268 62.235527 25.697601
v 96.462204 35.473354 78.701729
v 77.146530 104.689880 26.670918
v 52.484486 77.927711 79.675034
v -27.847504 39.533546 87.228500
v -91.906677 41.663158 82.153740
v -22.645489 69.079399 33.961796
v -86.704666 71.208969 28.887035
v -2.478216 43.325928 -58.591827
v 53.399708 48.825134 -89.917244
v 20.843897 74.571175 -11.504965
v 76.721848 80.070374 -42.830383
v 57.570408 105.225937 8.441748
v 47.858501 70.357857 61.580849
v -2.646644 125.224030 10.558331
v -12.358552 90.355949 63.697433
v -48.551411 64.263641 122.021751
v 36.720825 32.009087 87.100975
v -41.743389 154.995972 54.841248
v 43.528873 122.741394 19.920492
v -128.099167 68.592361 -78.018318
v -36.389637 33.034325 -109.794495
v -85.468002 86.269638 25.238722
v 6.241530 50.711601 -6.537443
v 158.829956 61.952644 -63.516350
v 77.259399 41.199867 -112.980888
v 96.708084 101.253761 22.438377
v 15.137522 80.500984 -27.026148
v 148.428772 164.973587 -57.853584
v 110.144104 218.917755 21.575916
v 74.280960 82.079727 -37.295578
v 35.996258 136.023926 42.133915
v 69.591080 143.079865 3.803109
v 18.142849 143.955093 42.354111
v 52.941738 85.495270 -17.108931
v 1.493498 86.370514 21.442062
vt 0.016880 0.007718
vt 0.392145 0.007718
vt 0.392145 0.442461
vt 0.016880 0.442461
vt 0.397521 0.005479
vt 0.985206 0.005479
vt 0.985206 0.648374
vt 0.397521 0.648374
vt 0.142594 0.451433
vt 0.389734 0.451433
vt 0.389734 0.686421
vt 0.142594 0.686422
vt 0.397521 0.005479
vt 0.985206 0.005479
vt 0.985206 0.648374
vt 0.397521 0.648374
vt 0.397521 0.005479
vt 0.985206 0.005479
vt 0.985206 0.648374
vt 0.397521 0.648374
vt 0.397521 0.005479
vt 0.985206 0.005479
vt 0.985206 0.648374
vt 0.397521 0.648374
vt 0.397521 0.005479
vt 0.985206 0.005479
vt 0.985206 0.648374
vt 0.397521 0.648374
vt 0.397521 0.005479
vt 0.985206 0.005479
vt 0.985206 0.648374
vt 0.397521 0.648374
vt 0.142594 0.451433
vt 0.389734 0.451433
vt 0.389734 0.686421
vt 0.142594 0.686422
vt 0.142594 0.451433
vt 0.389734 0.451433
vt 0.389734 0.686421
vt 0.142594 0.686422
vt 0.142594 0.451433
vt 0.389734 0.451433
vt 0.389734 0.686421
vt 0.142594 0.686422
vt 0.142594 0.451433
vt 0.389734 0.451433
vt 0.389734 0.686421
vt 0.142594 0.686422
vt 0.016880 0.007718
vt 0.392145 0.007718
vt 0.392145 0.442461
vt 0.016880 0.442461
vt 0.016880 0.007718
vt 0.392145 0.007718
vt 0.392145 0.442461
vt 0.016880 0.442461
vt 0.016880 0.007718
vt 0.392145 0.007718
vt 0.392145 0.442461
vt 0.016880 0.442461
vt 0.016880 0.007718
vt 0.392145 0.007718
vt 0.392145 0.442461
vt 0.016880 0.442461
vt 0.142594 0.451433
vt 0.389734 0.451433
vt 0.389734 0.686421
vt 0.142594 0.686422
vt 0.016880 0.007718
vt 0.016880 0.442461
vt 0.392145 0.442461
vt 0.392145 0.007718
vt 0.397521 0.005479
vt 0.397521 0.648374
vt 0.985206 0.648374
vt 0.985206 0.005479
vt 0.142594 0.451433
vt 0.142594 0.686422
vt 0.389734 0.686421
vt 0.389734 0.451433
vt 0.397521 0.005479
vt 0.397521 0.648374
vt 0.985206 0.648374
vt 0.985206 0.005479
vt 0.397521 0.005479
vt 0.397521 0.648374
vt 0.985206 0.648374
vt 0.985206 0.005479
vt 0.397521 0.005479
vt 0.397521 0.648374
vt 0.985206 0.648374
vt 0.985206 0.005479
vt 0.397521 0.005479
vt 0.397521 0.648374
vt 0.985206 0.648374
vt 0.985206 0.005479
vt 0.397521 0.005479
vt 0.397521 0.648374
vt 0.985206 0.648374
vt 0.985206 0.005479
vt 0.142594 0.451433
vt 0.142594 0.686422
vt 0.389734 0.686421
vt 0.389734 0.451433
vt 0.142594 0.451433
vt 0.142594 0.686422
vt 0.389734 0.686421
vt 0.389734 0.451433
vt 0.142594 0.451433
vt 0.142594 0.686422
vt 0.389734 0.686421
vt 0.389734 0.451433
vt 0.142594 0.451433
vt 0.389734 0.451433
vt 0.389734 0.686421
vt 0.142594 0.686422
vt 0.016880 0.007718
vt 0.016880 0.442461
vt 0.392145 0.442461
vt 0.392145 0.007718
vt 0.016880 0.007718
vt 0.392145 0.007718
vt 0.392145 0.442461
vt 0.016880 0.442461
vt 0.016880 0.007718
vt 0.016880 0.442461
vt 0.392145 0.442461
vt 0.392145 0.007718
vt 0.016880 0.007718
vt 0.392145 0.007718
vt 0.392145 0.442461
vt 0.016880 0.442461
vt 0.142594 0.451433
vt 0.389734 0.451433
vt 0.389734 0.686421
vt 0.142594 0.686422
vn 0.185465 -0.697731 0.691935
vn 0.185465 -0.697731 0.691935
vn 0.185465 -0.697731 0.691935
vn 0.185465 -0.697731 0.691935
vn 0.000000 -0.000000 1.000000
vn 0.000000 -0.000000 1.000000
vn 0.000000 -0.000000 1.000000
vn 0.000000 -0.000000 1.000000
vn -0.644448 0.409368 0.645836
vn -0.644448 0.409368 0.645836
vn -0.644448 0.409368 0.645836
vn -0.644448 0.409368 0.645836
vn 0.668999 0.230830 -0.706511
vn 0.668999 0.230830 -0.706511
vn 0.668999 0.230830 -0.706511
vn 0.668999 0.230830 -0.706511
vn -0.069092 0.949342 0.306555
vn -0.069092 0.949342 0.306555
vn -0.069092 0.949342 0.306555
vn -0.069092 0.949342 0.306555
vn -0.593423 0.804683 0.018280
vn -0.593423 0.804683 0.018280
vn -0.593423 0.804683 0.018280
vn -0.593423 0.804683 0.018280
vn 0.676336 0.546572 -0.493789
vn 0.676336 0.546572 -0.493789
vn 0.676336 0.546572 -0.493789
vn 0.676336 0.546572 -0.493789
vn 0.883807 -0.467826 0.004871
vn 0.883807 -0.467826 0.004871
vn 0.883807 -0.467826 0.004871
vn 0.883807 -0.467826 0.004871
vn -0.579121 -0.586930 -0.565802
vn -0.579121 -0.586930 -0.565802
vn -0.579121 -0.586930 -0.565802
vn -0.579121 -0.586930 -0.565802
vn 0.009287 -0.874830 -0.484341
vn 0.009287 -0.874830 -0.484341
vn 0.009287 -0.874830 -0.484341
vn 0.009287 -0.874830 -0.484341
vn 0.314890 -0.855258 0.411556
vn 0.314890 -0.855258 0.411556
vn 0.314890 -0.855258 0.411556
vn 0.314890 -0.855258 0.411556
vn 0.278423 0.778892 0.561968
vn 0.278423 0.778892 0.561968
vn 0.278423 0.778892 0.561968
vn 0.278423 0.778892 0.561968
vn 0.483192 0.497281 0.720582
vn 0.483192 0.497281 0.720582
vn 0.483192 0.497281 0.720582
vn 0.483192 0.497281 0.720582
vn 0.266009 0.925871 -0.268332
vn 0.266009 0.925871 -0.268332
vn 0.266009 0.925871 -0.268332
vn 0.266009 0.925871 -0.268332
vn 0.014510 0.913273 -0.407090
vn 0.014510 0.913273 -0.407090
vn 0.014510 0.913273 -0.407090
vn 0.014510 0.913273 -0.407090
vn -0.658048 0.436446 -0.613586
vn -0.658048 0.436446 -0.613586
vn -0.658048 0.436446 -0.613586
vn -0.658048 0.436446 -0.613586
vn -0.539373 0.420823 -0.729374
vn -0.539373 0.420823 -0.729374
vn -0.539373 0.420823 -0.729374
vn -0.539373 0.420823 -0.729374
vn -0.185466 0.697731 -0.691935
vn -0.185465 0.697731 -0.691935
vn -0.185466 0.697731 -0.691935
vn -0.185466 0.697731 -0.691935
vn 0.000000 0.000000 -1.000000
vn 0.000000 0.000000 -1.000000
vn 0.000000 0.000000 -1.000000
vn 0.000000 0.000000 -1.000000
vn 0.644448 -0.409368 -0.645836
vn 0.644448 -0.409368 -0.645836
vn 0.644448 -0.409368 -0.645836
vn 0.644448 -0.409368 -0.645836
vn -0.668999 -0.230830 0.706511
vn -0.668999 -0.230830 0.706511
vn -0.668999 -0.230830 0.706511
vn -0.668999 -0.230830 0.706511
vn 0.069092 -0.949342 -0.306555
vn 0.069092 -0.949342 -0.306555
vn 0.069092 -0.949342 -0.306555
vn 0.069092 -0.949342 -0.306555
vn 0.593423 -0.804683 -0.018280
vn 0.593423 -0.804683 -0.018280
vn 0.593423 -0.804683 -0.018280
vn 0.593423 -0.804683 -0.018280
vn -0.676336 -0.546572 0.493789
vn -0.676336 -0.546572 0.493789
vn -0.676336 -0.546572 0.493789
vn -0.676336 -0.546572 0.493789
vn -0.883807 0.467826 -0.004871
vn -0.883807 0.467826 -0.004871
vn -0.883807 0.467826 -0.004871
vn -0.883807 0.467826 -0.004871
vn 0.579121 0.586930 0.565802
vn 0.579121 0.586930 0.565802
vn 0.579121 0.586930 0.565802
vn 0.579121 0.586930 0.565802
vn -0.009287 0.874830 0.484341
vn -0.009287 0.874830 0.484341
vn -0.009287 0.874830 0.484341
vn -0.009287 0.874830 0.484341
vn -0.314890 0.855258 -0.411555
vn -0.314890 0.855258 -0.411555
vn -0.314890 0.855258 -0.411555
vn -0.314890 0.855258 -0.411555
vn -0.278423 -0.778892 -0.561968
vn -0.278423 -0.778892 -0.561968
vn -0.278423 -0.778892 -0.561968
vn -0.278423 -0.778892 -0.561968
vn -0.483192 -0.497281 -0.720581
vn -0.483192 -0.497281 -0.720582
vn -0.483192 -0.497281 -0.720582
vn -0.483192 -0.497281 -0.720582
vn -0.266009 -0.925871 0.268332
vn -0.266009 -0.925871 0.268332
vn -0.266009 -0.925871 0.268332
vn -0.266009 -0.925871 0.268332
vn -0.014510 -0.913273 0.407090
vn -0.014510 -0.913273 0.407090
vn -0.014510 -0.913273 0.407090
vn -0.014510 -0.913273 0.407090
vn 0.658048 -0.436446 0.613586
vn 0.658048 -0.436446 0.613586
vn 0.658048 -0.436446 0.613586
vn 0.658048 -0.436446 0.613586
vn 0.539372 -0.420823 0.729374
vn 0.539372 -0.420823 0.729374
vn 0.539372 -0.420823 0.729374
vn 0.539372 -0.420823 0.729374
s off
g Herb_TarnishLeaf
f 1/1/1 2/2/2 4/3/3 3/4/4
f 5/5/5 6/6/6 8/7/7 7/8/8
f 9/9/9 10/10/10 12/11/11 11/12/12
f 13/13/13 14/14/14 16/15/15 15/16/16
f 17/17/17 18/18/18 20/19/19 19/20/20
f 21/21/21 22/22/22 24/23/23 23/24/24
f 25/25/25 26/26/26 28/27/27 27/28/28
f 29/29/29 30/30/30 32/31/31 31/32/32
f 33/33/33 34/34/34 36/35/35 35/36/36
f 37/37/37 38/38/38 40/39/39 39/40/40
f 41/41/41 42/42/42 44/43/43 43/44/44
f 45/45/45 47/48/46 48/47/47 46/46/48
f 49/49/49 50/50/50 52/51/51 51/52/52
f 53/53/53 55/56/54 56/55/55 54/54/56
f 57/57/57 58/58/58 60/59/59 59/60/60
f 61/61/61 63/64/62 64/63/63 62/62/64
f 65/65/65 67/68/66 68/67/67 66/66/68
f 69/69/69 71/70/70 72/71/71 70/72/72
f 73/73/73 75/74/74 76/75/75 74/76/76
f 77/77/77 79/78/78 80/79/79 78/80/80
f 81/81/81 83/82/82 84/83/83 82/84/84
f 85/85/85 87/86/86 88/87/87 86/88/88
f 89/89/89 91/90/90 92/91/91 90/92/92
f 93/93/93 95/94/94 96/95/95 94/96/96
f 97/97/97 99/98/98 100/99/99 98/100/100
f 101/101/101 103/102/102 104/103/103 102/104/104
f 105/105/105 107/106/106 108/107/107 106/108/108
f 109/109/109 111/110/110 112/111/111 110/112/112
f 113/113/113 114/114/114 116/115/115 115/116/116
f 117/117/117 119/118/118 120/119/119 118/120/120
f 121/121/121 122/122/122 124/123/123 123/124/124
f 125/125/125 127/126/126 128/127/127 126/128/128
f 129/129/129 130/130/130 132/131/131 131/132/132
f 133/133/133 134/134/134 136/135/135 135/136/136
