# This file uses meters as units for non-parametric coordinates.

g default
v 8.283768 0.630869 -42.817677
v -39.248398 0.320399 -27.653185
v -39.248398 -0.380547 21.693726
v 8.283768 -0.630873 36.912392
v 37.660240 -0.177751 -3.112716
v 2.875750 110.356209 -34.988777
v -16.339209 107.159355 -29.626060
v -16.339209 96.814117 -12.271905
v 2.875750 93.617271 -6.909185
v 14.751056 101.986763 -20.948975
v 4.163973 71.461731 -3.585539
v -21.796688 72.026505 -11.512041
v -21.796688 74.291046 -36.769276
v 4.163973 75.109711 -44.467117
v 20.208536 73.030266 -24.256392
v 5.786083 34.518955 12.019494
v -28.668226 35.191895 1.430620
v -28.668226 38.002636 -32.265579
v 5.786083 39.332809 -42.262558
v 27.080074 36.301811 -15.683549
v -128.798294 50.562225 -8.634966
v -40.702034 -7.427115 25.284370
v -96.293129 65.416458 -67.663124
v -8.196877 7.427115 -33.743790
v 113.374443 75.259949 8.609232
v 44.437660 -10.169800 23.566244
v 79.459412 92.551041 -48.943748
v 10.522619 7.121293 -33.986736
v 71.965225 93.742798 -42.881573
v 42.709244 -5.056869 -2.175928
v 6.166290 106.449394 -59.331501
v -23.089691 7.649730 -18.625858
v 136.761902 234.586090 -28.186811
v 31.559612 207.088867 -54.984871
v -52.238400 279.931641 -69.598869
v -136.761993 234.586090 -28.186811
v -169.047012 161.215408 38.819332
v -93.461212 90.400612 61.972370
v -41.834724 53.137810 111.405350
v 43.572945 51.360329 117.392090
v 98.585030 90.098183 67.161537
v 169.047012 161.215424 38.819324
v 0.000000 95.917236 -32.681171
v 85.801369 187.200897 -25.168510
v 32.773182 215.649704 -51.149536
v -32.773247 215.649658 -51.149525
v -85.801369 187.200897 -25.168537
v -106.056313 141.169754 16.869637
v -85.801369 95.138664 58.907768
v -32.773182 66.689865 84.888763
v 32.773182 66.689880 84.888763
v 85.801369 95.138664 58.907768
v 106.056313 141.169754 16.869637
v 50.259251 181.901276 7.321135
v 19.197332 198.565521 -7.897574
v -0.000000 95.917236 -32.681164
v -19.197332 198.565506 -7.897551
v -50.259251 181.901230 7.321187
v -62.123840 154.937943 31.945545
v -50.259251 127.974579 56.569973
v -19.197332 111.310349 71.788666
v 19.197332 111.310326 71.788635
v 50.259251 127.974571 56.569927
v 62.123840 154.937927 31.945560
v 32.968498 99.527771 -14.078798
v 58.731560 289.375244 5.794001
v -30.983414 100.395790 -16.029167
v -51.147167 288.066467 2.247390
v 51.273548 252.707108 24.447710
v -44.849346 251.749191 20.804720
v 44.917294 203.321030 26.296762
v -40.134785 203.143127 22.973080
v 40.567917 146.178925 6.689101
v -37.581802 146.937805 4.121018
v -128.798294 50.562225 -8.634966
v -40.702034 -7.427115 25.284370
v -96.293129 65.416458 -67.663124
v -8.196877 7.427115 -33.743790
v 113.374443 75.259949 8.609232
v 44.437660 -10.169800 23.566244
v 79.459412 92.551041 -48.943748
v 10.522619 7.121293 -33.986736
v 71.965225 93.742798 -42.881573
v 42.709244 -5.056869 -2.175928
v 6.166290 106.449394 -59.331501
v -23.089691 7.649730 -18.625858
v 136.761902 234.586090 -28.186811
v 31.559612 207.088867 -54.984871
v -52.238400 279.931641 -69.598869
v -136.761993 234.586090 -28.186811
v -169.047012 161.215408 38.819332
v -93.461212 90.400612 61.972370
v -41.834724 53.137810 111.405350
v 43.572945 51.360329 117.392090
v 98.585030 90.098183 67.161537
v 169.047012 161.215424 38.819324
v 0.000000 95.917236 -32.681171
v 85.801369 187.200897 -25.168510
v 32.773182 215.649704 -51.149536
v -32.773247 215.649658 -51.149525
v -85.801369 187.200897 -25.168537
v -106.056313 141.169754 16.869637
v -85.801369 95.138664 58.907768
v -32.773182 66.689865 84.888763
v 32.773182 66.689880 84.888763
v 85.801369 95.138664 58.907768
v 106.056313 141.169754 16.869637
v 50.259251 181.901276 7.321135
v 19.197332 198.565521 -7.897574
v -0.000000 95.917236 -32.681164
v -19.197332 198.565506 -7.897551
v -50.259251 181.901230 7.321187
v -62.123840 154.937943 31.945545
v -50.259251 127.974579 56.569973
v -19.197332 111.310349 71.788666
v 19.197332 111.310326 71.788635
v 50.259251 127.974571 56.569927
v 62.123840 154.937927 31.945560
v 32.968498 99.527771 -14.078798
v 58.731560 289.375244 5.794001
v -30.983414 100.395790 -16.029167
v -51.147167 288.066467 2.247390
v 51.273548 252.707108 24.447710
v -44.849346 251.749191 20.804720
v 44.917294 203.321030 26.296762
v -40.134785 203.143127 22.973080
v 40.567917 146.178925 6.689101
v -37.581802 146.937805 4.121018
vt 0.869173 0.007401
vt 0.934934 0.111791
vt 0.841512 0.142493
vt 0.791956 0.064174
vt 0.990216 0.214427
vt 0.882871 0.220522
vt 0.993191 0.333629
vt 0.882605 0.315159
vt 0.930318 0.433252
vt 0.837645 0.394608
vt 0.846266 0.519523
vt 0.775513 0.456318
vt 0.779234 0.226572
vt 0.778042 0.297584
vt 0.721506 0.285559
vt 0.714229 0.238745
vt 0.753038 0.167220
vt 0.676577 0.203476
vt 0.716159 0.109362
vt 0.643264 0.164357
vt 0.747507 0.358955
vt 0.703426 0.408702
vt 0.639912 0.344180
vt 0.684523 0.318775
vt 0.419884 0.788586
vt 0.140120 0.788586
vt 0.140120 0.614338
vt 0.419884 0.614338
vt 0.419884 0.788586
vt 0.140120 0.788586
vt 0.140120 0.614338
vt 0.419884 0.614338
vt 0.419884 0.788586
vt 0.140120 0.788586
vt 0.140120 0.614338
vt 0.419884 0.614338
vt 0.067921 0.121084
vt 0.264846 0.125978
vt 0.323266 0.308021
vt 0.422148 0.007407
vt 0.579960 0.122940
vt 0.639724 0.309168
vt 0.497765 0.435771
vt 0.400707 0.549334
vt 0.240787 0.558769
vt 0.138228 0.441437
vt 0.006809 0.306874
vt 0.833941 0.625428
vt 0.866154 0.725130
vt 0.696926 0.725780
vt 0.834708 0.825077
vt 0.749941 0.886909
vt 0.645049 0.887339
vt 0.559947 0.826038
vt 0.527547 0.726430
vt 0.559183 0.626577
vt 0.643810 0.564623
vt 0.748703 0.564247
vt 0.909428 0.570501
vt 0.960577 0.724768
vt 0.910614 0.879423
vt 0.779897 0.975824
vt 0.617146 0.976982
vt 0.484516 0.882024
vt 0.432859 0.726792
vt 0.483325 0.571172
vt 0.615219 0.475198
vt 0.777975 0.475106
vt 0.010909 0.806852
vt 0.120754 0.806852
vt 0.120754 0.982090
vt 0.010909 0.982090
vt 0.340444 0.806852
vt 0.450289 0.806852
vt 0.450289 0.982090
vt 0.340444 0.982090
vt 0.230599 0.806852
vt 0.230599 0.982090
vt 0.419884 0.788586
vt 0.419884 0.614338
vt 0.140120 0.614338
vt 0.140120 0.788586
vt 0.419884 0.788586
vt 0.140120 0.788586
vt 0.140120 0.614338
vt 0.419884 0.614338
vt 0.419884 0.788586
vt 0.419884 0.614338
vt 0.140120 0.614338
vt 0.140120 0.788586
vt 0.067921 0.121084
vt 0.323266 0.308021
vt 0.264846 0.125978
vt 0.422148 0.007407
vt 0.579960 0.122940
vt 0.639724 0.309168
vt 0.497765 0.435771
vt 0.400707 0.549334
vt 0.240787 0.558769
vt 0.138228 0.441437
vt 0.006809 0.306874
vt 0.833941 0.625428
vt 0.696926 0.725780
vt 0.866154 0.725130
vt 0.834708 0.825077
vt 0.749941 0.886909
vt 0.645049 0.887339
vt 0.559947 0.826038
vt 0.527547 0.726430
vt 0.559183 0.626577
vt 0.643810 0.564623
vt 0.748703 0.564247
vt 0.909428 0.570501
vt 0.960577 0.724768
vt 0.910614 0.879423
vt 0.779897 0.975824
vt 0.617146 0.976982
vt 0.484516 0.882024
vt 0.432859 0.726792
vt 0.483325 0.571172
vt 0.615219 0.475198
vt 0.777975 0.475106
vt 0.010909 0.806852
vt 0.010909 0.982090
vt 0.120754 0.982090
vt 0.120754 0.806852
vt 0.340444 0.806852
vt 0.340444 0.982090
vt 0.450289 0.982090
vt 0.450289 0.806852
vt 0.230599 0.806852
vt 0.230599 0.982090
vn 0.306063 0.013272 -0.951919
vn -0.787716 0.164421 -0.593691
vn -0.793974 0.120376 -0.595915
vn 0.304629 -0.014642 -0.952358
vn -0.721330 0.491824 0.487639
vn -0.743811 0.416773 0.522538
vn 0.273612 0.556401 0.784573
vn 0.280771 0.472192 0.835585
vn 0.955987 0.291505 -0.033363
vn 0.971175 0.237052 -0.024997
vn -0.766922 0.257454 0.587833
vn 0.290385 0.255367 0.922206
vn 0.290324 0.123584 0.948915
vn -0.766979 0.175711 0.617146
vn -0.800737 0.171797 -0.573851
vn -0.795098 0.264919 -0.545561
vn 0.306642 0.113862 -0.944990
vn 0.302758 0.268305 -0.914522
vn 0.982621 0.185319 0.010619
vn 0.981156 0.189589 0.037253
vn 0.381844 0.824434 0.417737
vn 0.381844 0.824434 0.417737
vn 0.381844 0.824434 0.417737
vn 0.381844 0.824434 0.417737
vn -0.609310 0.585330 0.534912
vn -0.609310 0.585330 0.534912
vn -0.609310 0.585330 0.534912
vn -0.609310 0.585330 0.534912
vn 0.144935 -0.413301 -0.898986
vn 0.144935 -0.413301 -0.898986
vn 0.144935 -0.413301 -0.898986
vn 0.144935 -0.413301 -0.898986
vn -0.402112 0.369430 0.837751
vn -0.153593 0.236104 0.959513
vn 0.000000 0.674355 0.738408
vn 0.153593 0.236104 0.959513
vn 0.402112 0.369430 0.837751
vn 0.497038 0.585157 0.640737
vn 0.402112 0.800884 0.443724
vn 0.153593 0.934210 0.321963
vn -0.153593 0.934210 0.321963
vn -0.402112 0.800884 0.443724
vn -0.497038 0.585157 0.640738
vn -0.199359 0.546607 0.813313
vn -0.151811 0.497185 0.854260
vn 0.000000 0.785324 0.619085
vn 0.151811 0.497185 0.854260
vn 0.199359 0.546607 0.813313
vn 0.246421 0.653559 0.715637
vn 0.199359 0.760512 0.617962
vn 0.076148 0.826613 0.557596
vn -0.076148 0.826613 0.557595
vn -0.199359 0.760512 0.617962
vn -0.246421 0.653559 0.715638
vn 0.340955 0.794459 0.502578
vn 0.258058 0.868160 0.423915
vn -0.258058 0.868160 0.423915
vn -0.340955 0.794459 0.502578
vn -0.421444 0.611542 0.669628
vn -0.340955 0.428624 0.836679
vn -0.130233 0.315575 0.939921
vn 0.130233 0.315575 0.939921
vn 0.340955 0.428624 0.836678
vn 0.421444 0.611541 0.669629
vn -0.033699 -0.401491 0.915243
vn -0.034538 -0.361392 0.931774
vn -0.034538 -0.361392 0.931774
vn -0.033699 -0.401491 0.915243
vn -0.038238 0.253823 0.966495
vn -0.036064 0.454374 0.890081
vn -0.036064 0.454374 0.890081
vn -0.038238 0.253823 0.966495
vn -0.037617 -0.141912 0.989164
vn -0.037617 -0.141912 0.989164
vn -0.381844 -0.824434 -0.417737
vn -0.381844 -0.824434 -0.417737
vn -0.381844 -0.824434 -0.417737
vn -0.381844 -0.824434 -0.417737
vn 0.609310 -0.585330 -0.534912
vn 0.609310 -0.585330 -0.534912
vn 0.609310 -0.585330 -0.534912
vn 0.609310 -0.585330 -0.534912
vn -0.144935 0.413301 0.898986
vn -0.144935 0.413301 0.898986
vn -0.144935 0.413301 0.898986
vn -0.144935 0.413301 0.898986
vn 0.402112 -0.369430 -0.837751
vn 0.000000 -0.674355 -0.738408
vn 0.153593 -0.236104 -0.959513
vn -0.153593 -0.236104 -0.959513
vn -0.402112 -0.369430 -0.837751
vn -0.497038 -0.585157 -0.640738
vn -0.402112 -0.800884 -0.443724
vn -0.153593 -0.934210 -0.321963
vn 0.153593 -0.934210 -0.321963
vn 0.402112 -0.800884 -0.443724
vn 0.497038 -0.585157 -0.640738
vn 0.199359 -0.546607 -0.813312
vn -0.000000 -0.785324 -0.619085
vn 0.151811 -0.497185 -0.854260
vn -0.151811 -0.497185 -0.854260
vn -0.199359 -0.546607 -0.813313
vn -0.246421 -0.653559 -0.715638
vn -0.199359 -0.760512 -0.617962
vn -0.076148 -0.826613 -0.557596
vn 0.076148 -0.826613 -0.557595
vn 0.199359 -0.760512 -0.617962
vn 0.246421 -0.653559 -0.715637
vn -0.340955 -0.794459 -0.502578
vn -0.258058 -0.868160 -0.423915
vn 0.258058 -0.868160 -0.423915
vn 0.340955 -0.794459 -0.502578
vn 0.421444 -0.611541 -0.669628
vn 0.340955 -0.428624 -0.836679
vn 0.130233 -0.315575 -0.939921
vn -0.130233 -0.315575 -0.939921
vn -0.340955 -0.428624 -0.836679
vn -0.421444 -0.611541 -0.669629
vn 0.033699 0.401491 -0.915243
vn 0.033699 0.401491 -0.915243
vn 0.034538 0.361392 -0.931774
vn 0.034538 0.361392 -0.931774
vn 0.038238 -0.253823 -0.966495
vn 0.038238 -0.253823 -0.966495
vn 0.036064 -0.454374 -0.890081
vn 0.036064 -0.454374 -0.890081
vn 0.037617 0.141912 -0.989164
vn 0.037617 0.141912 -0.989164
s 1
g Herb_VerdentBlossom
f 1/1/1 2/2/2 18/3/3 19/4/4
f 2/2/2 3/5/5 17/6/6 18/3/3
f 3/5/5 4/7/7 16/8/8 17/6/6
f 4/7/7 5/9/9 20/10/10 16/8/8
f 5/9/9 1/11/1 19/12/4 20/10/10
f 12/13/11 11/14/12 9/15/13 8/16/14
f 13/17/15 12/13/11 8/16/14 7/18/16
f 14/19/17 13/17/15 7/18/16 6/20/18
f 15/21/19 14/22/17 6/23/18 10/24/20
f 11/14/12 15/21/19 10/24/20 9/15/13
f 17/6/6 16/8/8 11/14/12 12/13/11
f 18/3/3 17/6/6 12/13/11 13/17/15
f 19/4/4 18/3/3 13/17/15 14/19/17
f 20/10/10 19/12/4 14/22/17 15/21/19
f 16/8/8 20/10/10 15/21/19 11/14/12
s off
f 21/25/21 22/26/22 24/27/23 23/28/24
f 25/29/25 27/32/26 28/31/27 26/30/28
f 29/33/29 30/34/30 32/35/31 31/36/32
s 2
f 33/37/33 34/38/34 43/39/35
f 34/38/34 35/40/36 43/39/35
f 35/40/36 36/41/37 43/39/35
f 36/41/37 37/42/38 43/39/35
f 37/42/38 38/43/39 43/39/35
f 38/43/39 39/44/40 43/39/35
f 39/44/40 40/45/41 43/39/35
f 40/45/41 41/46/42 43/39/35
f 41/46/42 42/47/43 43/39/35
f 42/47/43 33/37/33 43/39/35
s 3
f 54/48/44 55/49/45 56/50/46
f 57/51/47 58/52/48 56/50/46
f 58/52/48 59/53/49 56/50/46
f 59/53/49 60/54/50 56/50/46
f 60/54/50 61/55/51 56/50/46
f 61/55/51 62/56/52 56/50/46
f 62/56/52 63/57/53 56/50/46
f 63/57/53 64/58/54 56/50/46
f 64/58/54 54/48/44 56/50/46
f 44/59/55 45/60/56 55/49/45 54/48/44
f 46/61/57 47/62/58 58/52/48 57/51/47
f 47/62/58 48/63/59 59/53/49 58/52/48
f 48/63/59 49/64/60 60/54/50 59/53/49
f 49/64/60 50/65/61 61/55/51 60/54/50
f 50/65/61 51/66/62 62/56/52 61/55/51
f 51/66/62 52/67/63 63/57/53 62/56/52
f 52/67/63 53/68/64 64/58/54 63/57/53
f 53/68/64 44/59/55 54/48/44 64/58/54
s 5
f 65/69/65 73/70/66 74/71/67 67/72/68
f 69/73/69 66/74/70 68/75/71 70/76/72
f 71/77/73 69/73/69 70/76/72 72/78/74
f 73/70/66 71/77/73 72/78/74 74/71/67
s off
f 75/79/75 77/80/76 78/81/77 76/82/78
f 79/83/79 80/84/80 82/85/81 81/86/82
f 83/87/83 85/88/84 86/89/85 84/90/86
s 7
f 87/91/87 97/92/88 88/93/89
f 88/93/89 97/92/88 89/94/90
f 89/94/90 97/92/88 90/95/91
f 90/95/91 97/92/88 91/96/92
f 91/96/92 97/92/88 92/97/93
f 92/97/93 97/92/88 93/98/94
f 93/98/94 97/92/88 94/99/95
f 94/99/95 97/92/88 95/100/96
f 95/100/96 97/92/88 96/101/97
f 96/101/97 97/92/88 87/91/87
s 8
f 108/102/98 110/103/99 109/104/100
f 111/105/101 110/103/99 112/106/102
f 112/106/102 110/103/99 113/107/103
f 113/107/103 110/103/99 114/108/104
f 114/108/104 110/103/99 115/109/105
f 115/109/105 110/103/99 116/110/106
f 116/110/106 110/103/99 117/111/107
f 117/111/107 110/103/99 118/112/108
f 118/112/108 110/103/99 108/102/98
f 98/113/109 108/102/98 109/104/100 99/114/110
f 100/115/111 111/105/101 112/106/102 101/116/112
f 101/116/112 112/106/102 113/107/103 102/117/113
f 102/117/113 113/107/103 114/108/104 103/118/114
f 103/118/114 114/108/104 115/109/105 104/119/115
f 104/119/115 115/109/105 116/110/106 105/120/116
f 105/120/116 116/110/106 117/111/107 106/121/117
f 106/121/117 117/111/107 118/112/108 107/122/118
f 107/122/118 118/112/108 108/102/98 98/113/109
s 10
f 119/123/119 121/124/120 128/125/121 127/126/122
f 123/127/123 124/128/124 122/129/125 120/130/126
f 125/131/127 126/132/128 124/128/124 123/127/123
f 127/126/122 128/125/121 126/132/128 125/131/127
