# This file uses meters as units for non-parametric coordinates.

g default
v -92.582390 0.000000 69.361298
v 92.582390 0.000000 -6.229755
v -54.250465 127.129196 28.895077
v 25.720993 116.444870 -0.695942
v -69.074318 69.652115 59.764431
v 63.662895 69.652115 5.576244
v 8.936630 0.000000 53.456570
v 6.230919 69.652115 54.561153
v -5.159004 127.129196 34.393215
v -18.942184 -0.000000 -69.175446
v -79.060890 -0.000000 70.245483
v -32.864227 126.515518 -11.871250
v -63.324539 79.508392 58.769131
v -61.300056 103.011955 17.754604
v -62.207237 -0.000000 -5.159306
v -30.451385 65.190681 -42.484531
v -66.301834 53.438900 4.336483
v -75.740898 41.687119 62.546131
v 68.559380 0.000000 -45.842381
v -82.826805 0.000000 -5.278568
v 34.780289 99.622581 -18.150730
v -30.301956 91.249992 -3.007557
v 49.339760 54.581665 -40.692478
v -59.182938 54.581665 -11.613926
v -11.929306 0.000000 -43.457859
v -9.717178 54.581665 -44.050602
v -2.844910 99.622581 -27.251469
v 7.680466 -0.000000 43.554005
v 50.443474 -0.000000 -70.245483
v -6.068142 83.829834 34.305866
v -10.939884 136.911438 -53.044041
v 19.140118 94.299973 -52.307636
v 1.526657 56.686283 39.414593
v 39.714279 47.675865 -57.965427
v 6.135483 28.584696 42.514751
v 6.085508 121.593246 -4.007175
v 25.149513 82.815430 -0.932178
v 37.867264 41.790981 -2.126057
v 44.057251 -0.000000 -7.710880
v -92.582390 0.000000 69.361298
v 92.582390 0.000000 -6.229755
v -54.250465 127.129196 28.895077
v 25.720993 116.444870 -0.695942
v -69.074318 69.652115 59.764431
v 63.662895 69.652115 5.576244
v 8.936630 0.000000 53.456570
v 6.230919 69.652115 54.561153
v -5.159004 127.129196 34.393215
v -18.942184 -0.000000 -69.175446
v -79.060890 -0.000000 70.245483
v -32.864227 126.515518 -11.871250
v -63.324539 79.508392 58.769131
v -61.300056 103.011955 17.754604
v -62.207237 -0.000000 -5.159306
v -30.451385 65.190681 -42.484531
v -66.301834 53.438900 4.336483
v -75.740898 41.687119 62.546131
v 68.559380 0.000000 -45.842381
v -82.826805 0.000000 -5.278568
v 34.780289 99.622581 -18.150730
v -30.301956 91.249992 -3.007557
v 49.339760 54.581665 -40.692478
v -59.182938 54.581665 -11.613926
v -11.929306 0.000000 -43.457859
v -9.717178 54.581665 -44.050602
v -2.844910 99.622581 -27.251469
v 7.680466 -0.000000 43.554005
v 50.443474 -0.000000 -70.245483
v -6.068142 83.829834 34.305866
v -10.939884 136.911438 -53.044041
v 19.140118 94.299973 -52.307636
v 1.526657 56.686283 39.414593
v 39.714279 47.675865 -57.965427
v 6.135483 28.584696 42.514751
v 6.085508 121.593246 -4.007175
v 25.149513 82.815430 -0.932178
v 37.867264 41.790981 -2.126057
v 44.057251 -0.000000 -7.710880
vt 0.523389 0.552219
vt 0.703291 0.552219
vt 0.695957 0.727017
vt 0.587111 0.727017
vt 0.459667 0.377421
vt 0.710626 0.377421
vt 0.961584 0.377421
vt 0.883193 0.552219
vt 0.804803 0.727017
vt 0.252765 0.511531
vt 0.396287 0.482039
vt 0.375244 0.576954
vt 0.278716 0.635938
vt 0.109243 0.541023
vt 0.182188 0.694923
vt 0.036298 0.377421
vt 0.226813 0.377421
vt 0.417329 0.377421
vt 0.523389 0.552219
vt 0.703291 0.552219
vt 0.695957 0.727017
vt 0.587111 0.727017
vt 0.459667 0.377421
vt 0.710626 0.377421
vt 0.961584 0.377421
vt 0.883193 0.552219
vt 0.804803 0.727017
vt 0.467584 0.869160
vt 0.467584 0.994639
vt 0.355108 0.960318
vt 0.381547 0.851999
vt 0.295511 0.834839
vt 0.242632 0.925997
vt 0.130156 0.891675
vt 0.209475 0.817678
vt 0.348390 0.743681
vt 0.288793 0.743681
vt 0.407987 0.743681
vt 0.467584 0.743681
vt 0.523389 0.552219
vt 0.703291 0.552219
vt 0.695957 0.727017
vt 0.587111 0.727017
vt 0.459667 0.377421
vt 0.710626 0.377421
vt 0.961584 0.377421
vt 0.883193 0.552219
vt 0.804803 0.727017
vt 0.252765 0.511531
vt 0.396287 0.482039
vt 0.375244 0.576954
vt 0.278716 0.635938
vt 0.109243 0.541023
vt 0.182188 0.694923
vt 0.036298 0.377421
vt 0.226813 0.377421
vt 0.417329 0.377421
vt 0.523389 0.552219
vt 0.703291 0.552219
vt 0.695957 0.727017
vt 0.587111 0.727017
vt 0.459667 0.377421
vt 0.710626 0.377421
vt 0.961584 0.377421
vt 0.883193 0.552219
vt 0.804803 0.727017
vt 0.467584 0.869160
vt 0.467584 0.994639
vt 0.355108 0.960318
vt 0.381547 0.851999
vt 0.295511 0.834839
vt 0.242632 0.925997
vt 0.130156 0.891675
vt 0.209475 0.817678
vt 0.348390 0.743681
vt 0.288793 0.743681
vt 0.407987 0.743681
vt 0.467584 0.743681
vn -0.083178 -0.155494 -0.984329
vn 0.002166 -0.405837 -0.913943
vn -0.291561 -0.457962 -0.839800
vn -0.365740 -0.201726 -0.908593
vn -0.118423 -0.042793 -0.992041
vn -0.383963 -0.056194 -0.921637
vn -0.628019 -0.165996 -0.760287
vn -0.608950 -0.064979 -0.790543
vn -0.641026 -0.459223 -0.614979
vn 0.911578 -0.118284 0.393745
vn 0.885210 -0.234665 0.401666
vn 0.978940 -0.199755 0.042124
vn 0.987269 -0.059294 0.147592
vn 0.810626 -0.132031 0.570485
vn 0.794672 -0.239946 0.557605
vn 0.815431 -0.068091 0.574835
vn 0.897435 -0.041443 0.439197
vn 0.981102 0.004336 0.193443
vn -0.040969 -0.155494 0.986987
vn -0.116809 -0.405836 0.906451
vn 0.183899 -0.457961 0.869743
vn 0.248862 -0.201726 0.947298
vn -0.006970 -0.042793 0.999060
vn 0.265304 -0.056194 0.962526
vn 0.527675 -0.165997 0.833069
vn 0.504960 -0.064979 0.860693
vn 0.558809 -0.459223 0.690541
vn -0.951055 -0.129604 -0.280530
vn -0.930089 -0.211277 -0.300496
vn -0.965521 -0.255160 -0.051600
vn -0.982370 -0.170442 -0.076800
vn -0.882757 -0.388119 -0.264773
vn -0.858742 -0.499478 -0.114384
vn -0.855774 -0.513960 0.059127
vn -0.896452 -0.442569 0.022523
vn -0.752748 -0.257751 -0.605751
vn -0.703316 -0.360486 -0.612696
vn -0.797897 -0.115231 -0.591677
vn -0.810880 -0.051471 -0.582944
vn 0.083178 0.155494 0.984329
vn 0.365740 0.201726 0.908593
vn 0.291561 0.457961 0.839800
vn -0.002166 0.405837 0.913943
vn 0.118423 0.042793 0.992041
vn 0.383963 0.056194 0.921637
vn 0.608950 0.064979 0.790543
vn 0.628019 0.165996 0.760288
vn 0.641026 0.459223 0.614979
vn -0.911578 0.118284 -0.393745
vn -0.987269 0.059294 -0.147592
vn -0.978940 0.199755 -0.042124
vn -0.885210 0.234665 -0.401666
vn -0.810626 0.132031 -0.570485
vn -0.794672 0.239946 -0.557605
vn -0.815431 0.068091 -0.574835
vn -0.897435 0.041443 -0.439197
vn -0.981102 -0.004336 -0.193443
vn 0.040969 0.155494 -0.986987
vn -0.248862 0.201726 -0.947298
vn -0.183899 0.457961 -0.869743
vn 0.116809 0.405836 -0.906450
vn 0.006970 0.042793 -0.999060
vn -0.265304 0.056194 -0.962526
vn -0.504960 0.064979 -0.860693
vn -0.527675 0.165997 -0.833069
vn -0.558809 0.459223 -0.690541
vn 0.951055 0.129604 0.280530
vn 0.982370 0.170442 0.076800
vn 0.965521 0.255160 0.051600
vn 0.930089 0.211277 0.300496
vn 0.882757 0.388119 0.264773
vn 0.896452 0.442569 -0.022523
vn 0.855774 0.513960 -0.059127
vn 0.858742 0.499478 0.114384
vn 0.752748 0.257751 0.605751
vn 0.703316 0.360486 0.612696
vn 0.797897 0.115231 0.591677
vn 0.810880 0.051471 0.582944
s 1
g Herb_DeadGrass
f 5/1/1 3/4/2 9/3/3 8/2/4
f 1/5/5 5/1/1 8/2/4 7/6/6
f 7/6/6 8/2/4 6/8/7 2/7/8
f 9/3/3 4/9/9 6/8/7 8/2/4
s 2
f 17/10/10 14/13/11 13/12/12 18/11/13
f 16/14/14 12/15/15 14/13/11 17/10/10
f 10/16/16 16/14/14 17/10/10 15/17/17
f 15/17/17 17/10/10 18/11/13 11/18/18
s 3
f 23/19/19 21/22/20 27/21/21 26/20/22
f 19/23/23 23/19/19 26/20/22 25/24/24
f 25/24/24 26/20/22 24/26/25 20/25/26
f 27/21/21 22/27/27 24/26/25 26/20/22
s 4
f 39/28/28 38/31/29 34/30/30 29/29/31
f 37/32/32 36/35/33 31/34/34 32/33/35
f 38/31/29 37/32/32 32/33/35 34/30/30
f 33/36/36 30/37/37 36/35/33 37/32/32
f 35/38/38 33/36/36 37/32/32 38/31/29
f 28/39/39 35/38/38 38/31/29 39/28/28
s 6
f 44/40/40 47/41/41 48/42/42 42/43/43
f 40/44/44 46/45/45 47/41/41 44/40/40
f 46/45/45 41/46/46 45/47/47 47/41/41
f 48/42/42 47/41/41 45/47/47 43/48/48
s 7
f 56/49/49 57/50/50 52/51/51 53/52/52
f 55/53/53 56/49/49 53/52/52 51/54/54
f 49/55/55 54/56/56 56/49/49 55/53/53
f 54/56/56 50/57/57 57/50/50 56/49/49
s 8
f 62/58/58 65/59/59 66/60/60 60/61/61
f 58/62/62 64/63/63 65/59/59 62/58/58
f 64/63/63 59/64/64 63/65/65 65/59/59
f 66/60/60 65/59/59 63/65/65 61/66/66
s 9
f 78/67/67 68/68/68 73/69/69 77/70/70
f 76/71/71 71/72/72 70/73/73 75/74/74
f 77/70/70 73/69/69 71/72/72 76/71/71
f 72/75/75 76/71/71 75/74/74 69/76/76
f 74/77/77 77/70/70 76/71/71 72/75/75
f 67/78/78 78/67/67 77/70/70 74/77/77
