# This file uses meters as units for non-parametric coordinates.

g default
v -2.006970 234.291962 117.145981
v -2.006970 0.000000 117.145981
v -2.006970 234.291962 -117.145981
v -2.006970 0.000000 -117.145981
v -93.161255 234.291962 73.580406
v -93.161255 0.000000 73.580406
v 89.147316 234.291962 -73.580406
v 89.147316 0.000000 -73.580406
v -71.859276 234.291962 -94.041672
v -71.859276 0.000000 -94.041672
v 67.845337 234.291962 94.041672
v 67.845337 0.000000 94.041672
v -116.845070 234.291962 -23.138536
v -116.845070 0.000000 -23.138536
v 112.831131 234.291962 23.138536
v 112.831131 0.000000 23.138536
v -2.006970 234.291962 117.145981
v -2.006970 0.000000 117.145981
v -2.006970 234.291962 -117.145981
v -2.006970 0.000000 -117.145981
v -93.161255 234.291962 73.580406
v -93.161255 0.000000 73.580406
v 89.147316 234.291962 -73.580406
v 89.147316 0.000000 -73.580406
v -71.859276 234.291962 -94.041672
v -71.859276 0.000000 -94.041672
v 67.845337 234.291962 94.041672
v 67.845337 0.000000 94.041672
v -116.845070 234.291962 -23.138536
v -116.845070 0.000000 -23.138536
v 112.831131 234.291962 23.138536
v 112.831131 0.000000 23.138536
vt 0.000994 0.000998
vt 0.496019 0.000998
vt 0.000994 0.496023
vt 0.496019 0.496023
vt 0.499692 0.000998
vt 0.994717 0.000998
vt 0.994717 0.496023
vt 0.499692 0.496023
vt 0.000994 0.503977
vt 0.496019 0.503977
vt 0.496019 0.999002
vt 0.000994 0.999002
vt 0.499692 0.503977
vt 0.994717 0.503977
vt 0.994717 0.999002
vt 0.499692 0.999002
vt 0.000994 0.000998
vt 0.496019 0.000998
vt 0.496019 0.496023
vt 0.000994 0.496023
vt 0.499692 0.000998
vt 0.994717 0.000998
vt 0.994717 0.496023
vt 0.499692 0.496023
vt 0.000994 0.503977
vt 0.496019 0.503977
vt 0.496019 0.999002
vt 0.000994 0.999002
vt 0.499692 0.503977
vt 0.994717 0.503977
vt 0.994717 0.999002
vt 0.499692 0.999002
vn -1.000000 0.000000 0.000000
vn -1.000000 0.000000 0.000000
vn -1.000000 0.000000 0.000000
vn -1.000000 0.000000 0.000000
vn -0.628109 0.000000 -0.778126
vn -0.628109 0.000000 -0.778126
vn -0.628109 0.000000 -0.778126
vn -0.628109 0.000000 -0.778126
vn 0.802773 0.000000 -0.596284
vn 0.802773 0.000000 -0.596284
vn 0.802773 0.000000 -0.596284
vn 0.802773 0.000000 -0.596284
vn 0.197519 0.000000 -0.980299
vn 0.197519 0.000000 -0.980299
vn 0.197519 0.000000 -0.980299
vn 0.197519 0.000000 -0.980299
vn 1.000000 0.000000 0.000000
vn 1.000000 0.000000 0.000000
vn 1.000000 0.000000 0.000000
vn 1.000000 0.000000 0.000000
vn 0.628109 0.000000 0.778126
vn 0.628109 0.000000 0.778126
vn 0.628109 0.000000 0.778126
vn 0.628109 0.000000 0.778126
vn -0.802773 0.000000 0.596284
vn -0.802773 0.000000 0.596284
vn -0.802773 0.000000 0.596284
vn -0.802773 0.000000 0.596284
vn -0.197519 0.000000 0.980299
vn -0.197519 0.000000 0.980299
vn -0.197519 0.000000 0.980299
vn -0.197519 0.000000 0.980299
s off
g Herb_TitansWound
f 1/1/1 3/3/2 4/4/3 2/2/4
f 5/5/5 7/8/6 8/7/7 6/6/8
f 9/9/9 11/12/10 12/11/11 10/10/12
f 13/13/13 15/16/14 16/15/15 14/14/16
f 17/17/17 18/18/18 20/19/19 19/20/20
f 21/21/21 22/22/22 24/23/23 23/24/24
f 25/25/25 26/26/26 28/27/27 27/28/28
f 29/29/29 30/30/30 32/31/31 31/32/32
