# This file uses meters as units for non-parametric coordinates.

g default
v -91.569885 0.000000 -34.493141
v 91.569878 -0.000000 -34.493141
v 50.734440 99.017059 -42.393539
v 48.925503 -0.000000 -8.909233
v 21.887436 108.897728 -40.090744
v 0.000000 0.000000 0.000000
v -7.975418 114.915543 -43.155766
v -48.925507 0.000000 -8.909233
v -37.468109 116.459290 -51.177254
v 65.275650 65.839981 -30.560486
v 31.054329 75.044258 -20.754326
v -5.318565 80.479576 -19.654350
v -41.322983 81.394562 -27.156242
v -74.464340 77.368309 -42.536880
v 78.948120 31.919455 -28.056213
v 40.080643 37.963055 -10.216721
v -2.659775 41.428371 -4.985832
v -45.143188 41.701832 -12.805923
v -83.264450 38.482525 -32.849266
v -91.569885 0.000000 -34.493141
v 91.569878 -0.000000 -34.493141
v 50.734440 99.017059 -42.393539
v 48.925503 -0.000000 -8.909233
v 21.887436 108.897728 -40.090744
v 0.000000 0.000000 0.000000
v -7.975418 114.915543 -43.155766
v -48.925507 0.000000 -8.909233
v -37.468109 116.459290 -51.177254
v 65.275650 65.839981 -30.560486
v 31.054329 75.044258 -20.754326
v -5.318565 80.479576 -19.654350
v -41.322983 81.394562 -27.156242
v -74.464340 77.368309 -42.536880
v 78.948120 31.919455 -28.056213
v 40.080643 37.963055 -10.216721
v -2.659775 41.428371 -4.985832
v -45.143188 41.701832 -12.805923
v -83.264450 38.482525 -32.849266
vt 0.459667 0.011162
vt 0.961584 0.011162
vt 0.840969 0.292854
vt 0.836105 0.011162
vt 0.765784 0.309469
vt 0.710626 0.011162
vt 0.690600 0.326084
vt 0.585146 0.011162
vt 0.615415 0.342699
vt 0.881174 0.198957
vt 0.789224 0.210033
vt 0.697275 0.221110
vt 0.605325 0.232187
vt 0.513376 0.243263
vt 0.921379 0.105059
vt 0.812665 0.110598
vt 0.703950 0.116136
vt 0.595236 0.121674
vt 0.486522 0.127213
vt 0.459667 0.011162
vt 0.486522 0.127213
vt 0.595236 0.121674
vt 0.585146 0.011162
vt 0.836105 0.011162
vt 0.812665 0.110598
vt 0.921379 0.105059
vt 0.961584 0.011162
vt 0.710626 0.011162
vt 0.703950 0.116136
vt 0.789224 0.210033
vt 0.765784 0.309469
vt 0.840969 0.292854
vt 0.881174 0.198957
vt 0.697275 0.221110
vt 0.690600 0.326084
vt 0.605325 0.232187
vt 0.615415 0.342699
vt 0.513376 0.243263
vn -0.492451 0.098532 0.864745
vn -0.340339 0.104187 0.934513
vn -0.329693 0.222995 0.917375
vn -0.473064 0.214021 0.854638
vn 0.318863 0.092015 0.943324
vn 0.473297 0.081003 0.877171
vn 0.434604 0.184438 0.881534
vn 0.288234 0.202515 0.935900
vn -0.011813 0.105148 0.994386
vn -0.022013 0.223802 0.974386
vn 0.222351 0.416537 0.881508
vn 0.349932 0.389378 0.852017
vn 0.304729 0.488091 0.817868
vn 0.187864 0.517177 0.835006
vn -0.042253 0.449011 0.892527
vn -0.052008 0.552411 0.831948
vn -0.305008 0.450886 0.838852
vn -0.291123 0.556539 0.778146
vn -0.429949 0.439785 0.788501
vn 0.492451 -0.098532 -0.864745
vn 0.473064 -0.214021 -0.854638
vn 0.329693 -0.222995 -0.917375
vn 0.340339 -0.104187 -0.934513
vn -0.318863 -0.092015 -0.943324
vn -0.288234 -0.202515 -0.935900
vn -0.434604 -0.184438 -0.881534
vn -0.473297 -0.081003 -0.877171
vn 0.011813 -0.105148 -0.994386
vn 0.022013 -0.223802 -0.974386
vn -0.222351 -0.416537 -0.881508
vn -0.187864 -0.517177 -0.835006
vn -0.304729 -0.488092 -0.817867
vn -0.349932 -0.389378 -0.852017
vn 0.042253 -0.449011 -0.892527
vn 0.052008 -0.552411 -0.831948
vn 0.305008 -0.450886 -0.838852
vn 0.291123 -0.556539 -0.778146
vn 0.429949 -0.439785 -0.788501
s 1
g Herb_LushGrass_B
f 1/1/1 8/8/2 18/18/3 19/19/4
f 4/4/5 2/2/6 15/15/7 16/16/8
f 6/6/9 4/4/5 16/16/8 17/17/10
f 8/8/2 6/6/9 17/17/10 18/18/3
f 11/11/11 10/10/12 3/3/13 5/5/14
f 12/12/15 11/11/11 5/5/14 7/7/16
f 13/13/17 12/12/15 7/7/16 9/9/18
f 14/14/19 13/13/17 9/9/18
f 16/16/8 15/15/7 10/10/12 11/11/11
f 17/17/10 16/16/8 11/11/11 12/12/15
f 18/18/3 17/17/10 12/12/15 13/13/17
f 19/19/4 18/18/3 13/13/17 14/14/19
s 3
f 20/20/20 38/21/21 37/22/22 27/23/23
f 23/24/24 35/25/25 34/26/26 21/27/27
f 25/28/28 36/29/29 35/25/25 23/24/24
f 27/23/23 37/22/22 36/29/29 25/28/28
f 30/30/30 24/31/31 22/32/32 29/33/33
f 31/34/34 26/35/35 24/31/31 30/30/30
f 32/36/36 28/37/37 26/35/35 31/34/34
f 33/38/38 28/37/37 32/36/36
f 35/25/25 30/30/30 29/33/33 34/26/26
f 36/29/29 31/34/34 30/30/30 35/25/25
f 37/22/22 32/36/36 31/34/34 36/29/29
f 38/21/21 33/38/38 32/36/36 37/22/22
