# This file uses meters as units for non-parametric coordinates.

g default
v -75.000000 0.000000 -15.942223
v 75.000000 0.000000 -15.942223
v 21.810822 118.931473 -29.548195
v -41.404022 108.626083 -30.560173
v 0.000000 0.000000 0.000000
v -15.246460 117.977928 -13.605980
v -62.891235 62.538803 -15.942230
v -6.862610 63.015579 0.000000
v 49.166031 63.492352 -15.942223
v -75.000000 0.000000 -15.942223
v 75.000000 0.000000 -15.942223
v 21.810822 118.931473 -29.548195
v -41.404022 108.626083 -30.560173
v 0.000000 0.000000 0.000000
v -15.246460 117.977928 -13.605980
v -62.891235 62.538803 -15.942230
v -6.862610 63.015579 0.000000
v 49.166031 63.492352 -15.942223
vt 0.040891 0.011162
vt 0.417329 0.011162
vt 0.287663 0.329841
vt 0.101667 0.325055
vt 0.229110 0.011162
vt 0.194665 0.327448
vt 0.071279 0.168108
vt 0.211887 0.169305
vt 0.352496 0.170501
vt 0.071279 0.168108
vt 0.194665 0.327448
vt 0.211887 0.169305
vt 0.287663 0.329841
vt 0.352496 0.170501
vt 0.040891 0.011162
vt 0.229110 0.011162
vt 0.417329 0.011162
vt 0.101667 0.325055
vn -0.382564 0.238060 0.892733
vn 0.008343 0.152182 0.988317
vn -0.204181 0.362700 0.909263
vn 0.271847 0.191976 0.942998
vn 0.302684 0.319327 0.898005
vn -0.236462 0.009880 0.971590
vn -0.000346 0.036454 0.999335
vn 0.235791 0.060941 0.969891
vn -0.591438 0.481014 0.647168
vn 0.382564 -0.238060 -0.892733
vn 0.204181 -0.362700 -0.909263
vn -0.008343 -0.152182 -0.988317
vn -0.302684 -0.319327 -0.898005
vn -0.271847 -0.191976 -0.942998
vn 0.236462 -0.009880 -0.971590
vn 0.000346 -0.036454 -0.999335
vn -0.235791 -0.060941 -0.969891
vn 0.591438 -0.481014 -0.647168
s 1
g Herb_LushGrass_A
f 7/7/1 8/8/2 6/6/3
f 8/8/2 9/9/4 3/3/5 6/6/3
f 1/1/6 5/5/7 8/8/2 7/7/1
f 5/5/7 2/2/8 9/9/4 8/8/2
f 7/7/1 6/6/3 4/4/9
s 2
f 16/10/10 15/11/11 17/12/12
f 17/12/12 15/11/11 12/13/13 18/14/14
f 10/15/15 16/10/10 17/12/12 14/16/16
f 14/16/16 17/12/12 18/14/14 11/17/17
f 16/10/10 13/18/18 15/11/11
