# This file uses meters as units for non-parametric coordinates.

g default
v -12.319763 -0.000000 -8.523666
v 87.385315 -0.000000 -16.198181
v 74.823181 92.301804 -41.111328
v 11.534363 114.250893 -47.405975
v 77.931763 62.844627 -27.041595
v 2.105774 79.838623 -26.550568
v 82.109314 31.702450 -18.684738
v -5.894348 41.173901 -13.329346
v 44.435364 109.754799 -33.859604
v 41.093964 75.724915 -15.427719
v 39.075714 38.639198 -4.067032
v 38.466156 -0.000000 -0.234619
v -106.040588 -0.000000 -7.028427
v -29.019501 -0.000000 -70.807373
v -17.907104 108.516968 -5.938675
v -65.684387 102.120956 41.901260
v -26.425049 80.626999 -38.062683
v -84.614014 76.476494 13.642303
v -30.504852 43.139587 -60.505096
v -98.443130 40.650047 -3.490112
v -36.421326 95.593979 22.151505
v -48.868713 71.325768 -5.255585
v -56.998535 38.067265 -23.244095
v -59.773132 -0.000000 -29.550476
v -124.400269 0.000000 21.255157
v 58.265106 -0.000000 8.081863
v 16.967163 99.017059 3.139236
v 17.571442 -0.000000 36.666931
v -11.639465 108.897728 7.511047
v -30.586487 0.000000 49.072296
v -41.645447 114.915543 6.601990
v -80.026062 0.000000 43.705368
v -71.638733 116.459290 0.722702
v 32.321869 65.839981 13.895691
v -1.105438 75.044258 26.137985
v -37.304993 80.479576 29.851425
v -73.755753 81.394562 24.958771
v -107.917603 77.368309 12.001831
v 46.139038 31.919455 15.410004
v 8.655457 37.963055 35.999039
v -33.597992 41.428371 44.290710
v -76.533829 41.701832 39.546707
v -115.998108 38.482525 22.297363
v -15.722229 -0.000000 65.532776
v 124.400269 -0.000000 12.000656
v 69.857849 118.931473 18.272827
v 10.444580 108.626083 39.887665
v 60.028442 -0.000000 53.659149
v 40.930298 117.977928 46.390289
v -4.410828 62.538803 61.211395
v 53.617737 63.015579 56.108276
v 100.267456 63.492352 21.220306
v 41.320740 -0.000000 -39.055252
v -40.266418 -0.000000 18.768051
v -46.482819 108.516968 -46.751312
v 4.747559 102.120956 -90.873596
v -40.397949 80.626999 -14.078995
v 21.504639 76.476494 -61.274628
v -38.012665 43.139587 8.606171
v 34.010010 40.650047 -43.153351
v -25.914215 95.593979 -73.373962
v -15.557190 71.325768 -45.110596
v -8.799286 38.067265 -26.563065
v -6.505432 -0.000000 -20.066360
v 87.512146 -0.000000 39.433807
v -18.568298 -0.000000 -66.617798
v 9.427673 118.931473 -19.390289
v 53.417938 108.626083 26.018936
v 45.743225 -0.000000 -24.866394
v 46.906006 117.977928 -4.464783
v 78.948792 62.538803 30.872772
v 50.596497 63.015579 -20.014450
v -0.298431 63.492352 -48.352905
v -64.911880 -0.000000 31.650711
v -13.729065 -0.000000 76.337090
v -56.017578 73.732109 90.873596
v -93.317688 69.386322 64.057953
v -35.404877 54.782204 81.653046
v -76.434067 51.962135 48.277222
v -20.800171 29.311295 76.466095
v -66.455017 27.619770 37.132111
v -76.877304 64.951553 81.525398
v -59.856995 48.462460 70.184814
v -48.681458 25.864893 62.768265
v -44.755310 -0.000000 60.218838
v -37.005432 0.000000 51.045532
v -23.768707 0.000000 -48.074554
v -50.750244 92.301804 -40.970413
v -70.074158 114.250893 19.623993
v -36.341644 62.844627 -41.083801
v -51.636688 79.838623 33.185196
v -27.298523 31.702450 -43.431335
v -40.369141 41.173901 43.760895
v -49.979279 109.754799 -9.738800
v -32.645874 75.724915 -2.635834
v -21.953644 38.639198 1.701813
v -18.331909 0.000000 3.095367
v -12.319763 -0.000000 -8.523666
v 87.385315 -0.000000 -16.198181
v 74.823181 92.301804 -41.111328
v 11.534363 114.250893 -47.405975
v 77.931763 62.844627 -27.041595
v 2.105774 79.838623 -26.550568
v 82.109314 31.702450 -18.684738
v -5.894348 41.173901 -13.329346
v 44.435364 109.754799 -33.859604
v 41.093964 75.724915 -15.427719
v 39.075714 38.639198 -4.067032
v 38.466156 -0.000000 -0.234619
v -106.040588 -0.000000 -7.028427
v -29.019501 -0.000000 -70.807373
v -17.907104 108.516968 -5.938675
v -65.684387 102.120956 41.901260
v -26.425049 80.626999 -38.062683
v -84.614014 76.476494 13.642303
v -30.504852 43.139587 -60.505096
v -98.443130 40.650047 -3.490112
v -36.421326 95.593979 22.151505
v -48.868713 71.325768 -5.255585
v -56.998535 38.067265 -23.244095
v -59.773132 -0.000000 -29.550476
v -124.400269 0.000000 21.255157
v 58.265106 -0.000000 8.081863
v 16.967163 99.017059 3.139236
v 17.571442 -0.000000 36.666931
v -11.639465 108.897728 7.511047
v -30.586487 0.000000 49.072296
v -41.645447 114.915543 6.601990
v -80.026062 0.000000 43.705368
v -71.638733 116.459290 0.722702
v 32.321869 65.839981 13.895691
v -1.105438 75.044258 26.137985
v -37.304993 80.479576 29.851425
v -73.755753 81.394562 24.958771
v -107.917603 77.368309 12.001831
v 46.139038 31.919455 15.410004
v 8.655457 37.963055 35.999039
v -33.597992 41.428371 44.290710
v -76.533829 41.701832 39.546707
v -115.998108 38.482525 22.297363
v -15.722229 -0.000000 65.532776
v 124.400269 -0.000000 12.000656
v 69.857849 118.931473 18.272827
v 10.444580 108.626083 39.887665
v 60.028442 -0.000000 53.659149
v 40.930298 117.977928 46.390289
v -4.410828 62.538803 61.211395
v 53.617737 63.015579 56.108276
v 100.267456 63.492352 21.220306
v 41.320740 -0.000000 -39.055252
v -40.266418 -0.000000 18.768051
v -46.482819 108.516968 -46.751312
v 4.747559 102.120956 -90.873596
v -40.397949 80.626999 -14.078995
v 21.504639 76.476494 -61.274628
v -38.012665 43.139587 8.606171
v 34.010010 40.650047 -43.153351
v -25.914215 95.593979 -73.373962
v -15.557190 71.325768 -45.110596
v -8.799286 38.067265 -26.563065
v -6.505432 -0.000000 -20.066360
v 87.512146 -0.000000 39.433807
v -18.568298 -0.000000 -66.617798
v 9.427673 118.931473 -19.390289
v 53.417938 108.626083 26.018936
v 45.743225 -0.000000 -24.866394
v 46.906006 117.977928 -4.464783
v 78.948792 62.538803 30.872772
v 50.596497 63.015579 -20.014450
v -0.298431 63.492352 -48.352905
v -64.911880 -0.000000 31.650711
v -13.729065 -0.000000 76.337090
v -56.017578 73.732109 90.873596
v -93.317688 69.386322 64.057953
v -35.404877 54.782204 81.653046
v -76.434067 51.962135 48.277222
v -20.800171 29.311295 76.466095
v -66.455017 27.619770 37.132111
v -76.877304 64.951553 81.525398
v -59.856995 48.462460 70.184814
v -48.681458 25.864893 62.768265
v -44.755310 -0.000000 60.218838
v -37.005432 0.000000 51.045532
v -23.768707 0.000000 -48.074554
v -50.750244 92.301804 -40.970413
v -70.074158 114.250893 19.623993
v -36.341644 62.844627 -41.083801
v -51.636688 79.838623 33.185196
v -27.298523 31.702450 -43.431335
v -40.369141 41.173901 43.760895
v -49.979279 109.754799 -9.738800
v -32.645874 75.724915 -2.635834
v -21.953644 38.639198 1.701813
v -18.331909 0.000000 3.095367
vt 0.870687 0.743681
vt 0.870687 0.994639
vt 0.597826 0.950653
vt 0.557865 0.786019
vt 0.688780 0.965315
vt 0.662139 0.771906
vt 0.779733 0.979977
vt 0.766413 0.757793
vt 0.577846 0.868336
vt 0.675460 0.868611
vt 0.773073 0.868885
vt 0.870687 0.869160
vt 0.870687 0.869160
vt 0.870687 0.994639
vt 0.779733 0.979977
vt 0.773073 0.868885
vt 0.675460 0.868611
vt 0.688780 0.965315
vt 0.597826 0.950653
vt 0.577846 0.868336
vt 0.662139 0.771906
vt 0.557865 0.786019
vt 0.766413 0.757793
vt 0.870687 0.743681
vt 0.459667 0.011162
vt 0.585146 0.011162
vt 0.595236 0.121674
vt 0.486522 0.127213
vt 0.836105 0.011162
vt 0.961584 0.011162
vt 0.921379 0.105059
vt 0.812665 0.110598
vt 0.710626 0.011162
vt 0.703950 0.116136
vt 0.789224 0.210033
vt 0.881174 0.198957
vt 0.840969 0.292854
vt 0.765784 0.309469
vt 0.697275 0.221110
vt 0.690600 0.326084
vt 0.605325 0.232187
vt 0.615415 0.342699
vt 0.513376 0.243263
vt 0.071279 0.168108
vt 0.211887 0.169305
vt 0.194665 0.327448
vt 0.352496 0.170501
vt 0.287663 0.329841
vt 0.040891 0.011162
vt 0.229110 0.011162
vt 0.417329 0.011162
vt 0.101667 0.325055
vt 0.870687 0.869160
vt 0.870687 0.994639
vt 0.779733 0.979977
vt 0.773073 0.868885
vt 0.675460 0.868611
vt 0.688780 0.965315
vt 0.597826 0.950653
vt 0.577846 0.868336
vt 0.662139 0.771906
vt 0.557865 0.786019
vt 0.766413 0.757793
vt 0.870687 0.743681
vt 0.071279 0.168108
vt 0.211887 0.169305
vt 0.194665 0.327448
vt 0.352496 0.170501
vt 0.287663 0.329841
vt 0.040891 0.011162
vt 0.229110 0.011162
vt 0.417329 0.011162
vt 0.101667 0.325055
vt 0.870687 0.869160
vt 0.870687 0.994639
vt 0.779733 0.979977
vt 0.773073 0.868885
vt 0.675460 0.868611
vt 0.688780 0.965315
vt 0.597826 0.950653
vt 0.577846 0.868336
vt 0.662139 0.771906
vt 0.557865 0.786019
vt 0.766413 0.757793
vt 0.870687 0.743681
vt 0.870687 0.869160
vt 0.870687 0.994639
vt 0.779733 0.979977
vt 0.773073 0.868885
vt 0.675460 0.868611
vt 0.688780 0.965315
vt 0.597826 0.950653
vt 0.577846 0.868336
vt 0.662139 0.771906
vt 0.557865 0.786019
vt 0.766413 0.757793
vt 0.870687 0.743681
vt 0.870687 0.869160
vt 0.773073 0.868885
vt 0.779733 0.979977
vt 0.870687 0.994639
vt 0.675460 0.868611
vt 0.577846 0.868336
vt 0.597826 0.950653
vt 0.688780 0.965315
vt 0.662139 0.771906
vt 0.557865 0.786019
vt 0.766413 0.757793
vt 0.870687 0.743681
vt 0.870687 0.869160
vt 0.773073 0.868885
vt 0.779733 0.979977
vt 0.870687 0.994639
vt 0.675460 0.868611
vt 0.577846 0.868336
vt 0.597826 0.950653
vt 0.688780 0.965315
vt 0.662139 0.771906
vt 0.557865 0.786019
vt 0.766413 0.757793
vt 0.870687 0.743681
vt 0.459667 0.011162
vt 0.486522 0.127213
vt 0.595236 0.121674
vt 0.585146 0.011162
vt 0.836105 0.011162
vt 0.812665 0.110598
vt 0.921379 0.105059
vt 0.961584 0.011162
vt 0.710626 0.011162
vt 0.703950 0.116136
vt 0.789224 0.210033
vt 0.765784 0.309469
vt 0.840969 0.292854
vt 0.881174 0.198957
vt 0.697275 0.221110
vt 0.690600 0.326084
vt 0.605325 0.232187
vt 0.615415 0.342699
vt 0.513376 0.243263
vt 0.071279 0.168108
vt 0.194665 0.327448
vt 0.211887 0.169305
vt 0.287663 0.329841
vt 0.352496 0.170501
vt 0.040891 0.011162
vt 0.229110 0.011162
vt 0.417329 0.011162
vt 0.101667 0.325055
vt 0.870687 0.869160
vt 0.773073 0.868885
vt 0.779733 0.979977
vt 0.870687 0.994639
vt 0.675460 0.868611
vt 0.577846 0.868336
vt 0.597826 0.950653
vt 0.688780 0.965315
vt 0.662139 0.771906
vt 0.557865 0.786019
vt 0.766413 0.757793
vt 0.870687 0.743681
vt 0.071279 0.168108
vt 0.194665 0.327448
vt 0.211887 0.169305
vt 0.287663 0.329841
vt 0.352496 0.170501
vt 0.040891 0.011162
vt 0.229110 0.011162
vt 0.417329 0.011162
vt 0.101667 0.325055
vt 0.870687 0.869160
vt 0.773073 0.868885
vt 0.779733 0.979977
vt 0.870687 0.994639
vt 0.675460 0.868611
vt 0.577846 0.868336
vt 0.597826 0.950653
vt 0.688780 0.965315
vt 0.662139 0.771906
vt 0.557865 0.786019
vt 0.766413 0.757793
vt 0.870687 0.743681
vt 0.870687 0.869160
vt 0.773073 0.868885
vt 0.779733 0.979977
vt 0.870687 0.994639
vt 0.675460 0.868611
vt 0.577846 0.868336
vt 0.597826 0.950653
vt 0.688780 0.965315
vt 0.662139 0.771906
vt 0.557865 0.786019
vt 0.766413 0.757793
vt 0.870687 0.743681
vn 0.074931 0.117234 0.990273
vn 0.320988 0.105840 0.941151
vn 0.341897 0.188394 0.920660
vn 0.079940 0.214415 0.973466
vn 0.093247 0.402123 0.910825
vn 0.388650 0.342845 0.855224
vn 0.414153 0.413574 0.810822
vn 0.101482 0.491114 0.865164
vn -0.211518 0.423657 0.880781
vn -0.222021 0.516237 0.827168
vn -0.188282 0.224984 0.955998
vn -0.175854 0.121232 0.976923
vn 0.634181 -0.153904 0.757712
vn 0.805072 -0.131100 0.578508
vn 0.804851 -0.269885 0.528561
vn 0.620672 -0.318538 0.716450
vn 0.553162 -0.614066 0.562970
vn 0.772256 -0.512783 0.375065
vn 0.741337 -0.612107 0.275218
vn 0.500795 -0.736694 0.454408
vn 0.280319 -0.657981 0.698915
vn 0.207423 -0.783566 0.585663
vn 0.390506 -0.344473 0.853723
vn 0.424074 -0.167192 0.890061
vn -0.428974 0.098532 0.897927
vn -0.272238 0.104187 0.956573
vn -0.262851 0.222995 0.938713
vn -0.410364 0.214021 0.886452
vn 0.385890 0.092015 0.917944
vn 0.535166 0.081003 0.840854
vn 0.496887 0.184438 0.847989
vn 0.354807 0.202515 0.912743
vn 0.059744 0.105148 0.992660
vn 0.048132 0.223802 0.973445
vn 0.285182 0.416537 0.863231
vn 0.410311 0.389378 0.824639
vn 0.362769 0.488091 0.793830
vn 0.247439 0.517177 0.819330
vn 0.022056 0.449011 0.893254
vn 0.007969 0.552411 0.833534
vn -0.243879 0.450886 0.858618
vn -0.234397 0.556539 0.797071
vn -0.372118 0.439785 0.817385
vn -0.038773 0.238060 0.970476
vn 0.360505 0.152182 0.920259
vn 0.133763 0.362700 0.922256
vn 0.590483 0.191976 0.783885
vn 0.603233 0.319327 0.730849
vn 0.125851 0.009880 0.992000
vn 0.356321 0.036454 0.933652
vn 0.566399 0.060941 0.821875
vn -0.321530 0.481014 0.815625
vn -0.575572 -0.153904 -0.803137
vn -0.759421 -0.131100 -0.637254
vn -0.762946 -0.269885 -0.587431
vn -0.565196 -0.318538 -0.760978
vn -0.509386 -0.614066 -0.602868
vn -0.741955 -0.512783 -0.431923
vn -0.718610 -0.612106 -0.330037
vn -0.465308 -0.736694 -0.490685
vn -0.227117 -0.657981 -0.717968
vn -0.162919 -0.783566 -0.599569
vn -0.325383 -0.344473 -0.880605
vn -0.356132 -0.167192 -0.919357
vn 0.901722 0.238060 -0.360867
vn 0.692850 0.152182 -0.704840
vn 0.787256 0.362700 -0.498676
vn 0.474459 0.191976 -0.859089
vn 0.420840 0.319327 -0.849073
vn 0.854152 0.009880 -0.519930
vn 0.706785 0.036454 -0.706489
vn 0.518971 0.060941 -0.852617
vn 0.875822 0.481014 -0.039527
vn -0.645926 -0.153904 0.747725
vn -0.441584 -0.131099 0.887590
vn -0.392323 -0.269885 0.879344
vn -0.607371 -0.318538 0.727759
vn -0.466738 -0.614066 0.636458
vn -0.246061 -0.512783 0.822501
vn -0.152482 -0.612106 0.775935
vn -0.368005 -0.736693 0.567323
vn -0.644770 -0.657981 0.389014
vn -0.544708 -0.783565 0.298862
vn -0.779856 -0.344473 0.522651
vn -0.810325 -0.167192 0.561622
vn 0.984194 0.117234 0.132732
vn 0.987338 0.105840 -0.118162
vn 0.971645 0.188394 -0.142876
vn 0.968797 0.214415 0.124335
vn 0.910295 0.402123 0.098287
vn 0.917368 0.342845 -0.202219
vn 0.879244 0.413574 -0.236402
vn 0.867346 0.491114 0.080733
vn 0.817503 0.423657 0.390133
vn 0.762878 0.516237 0.389252
vn 0.895909 0.224984 0.383054
vn 0.918961 0.121231 0.375251
vn -0.074931 -0.117234 -0.990273
vn -0.079940 -0.214415 -0.973466
vn -0.341897 -0.188394 -0.920660
vn -0.320988 -0.105840 -0.941151
vn -0.093247 -0.402123 -0.910825
vn -0.101482 -0.491114 -0.865164
vn -0.414153 -0.413574 -0.810823
vn -0.388650 -0.342845 -0.855224
vn 0.211518 -0.423657 -0.880781
vn 0.222021 -0.516237 -0.827168
vn 0.188282 -0.224984 -0.955998
vn 0.175854 -0.121232 -0.976923
vn -0.634181 0.153904 -0.757712
vn -0.620672 0.318538 -0.716450
vn -0.804851 0.269885 -0.528561
vn -0.805072 0.131100 -0.578508
vn -0.553162 0.614066 -0.562970
vn -0.500795 0.736694 -0.454408
vn -0.741337 0.612107 -0.275218
vn -0.772256 0.512783 -0.375065
vn -0.280319 0.657981 -0.698915
vn -0.207423 0.783566 -0.585663
vn -0.390506 0.344473 -0.853723
vn -0.424074 0.167192 -0.890061
vn 0.428974 -0.098532 -0.897927
vn 0.410364 -0.214021 -0.886452
vn 0.262852 -0.222995 -0.938713
vn 0.272238 -0.104187 -0.956573
vn -0.385890 -0.092015 -0.917944
vn -0.354807 -0.202515 -0.912743
vn -0.496887 -0.184438 -0.847989
vn -0.535166 -0.081003 -0.840854
vn -0.059744 -0.105148 -0.992660
vn -0.048132 -0.223802 -0.973446
vn -0.285182 -0.416537 -0.863231
vn -0.247439 -0.517177 -0.819330
vn -0.362769 -0.488091 -0.793830
vn -0.410311 -0.389378 -0.824639
vn -0.022056 -0.449011 -0.893254
vn -0.007969 -0.552411 -0.833534
vn 0.243879 -0.450886 -0.858618
vn 0.234397 -0.556539 -0.797071
vn 0.372118 -0.439785 -0.817385
vn 0.038773 -0.238060 -0.970476
vn -0.133763 -0.362700 -0.922256
vn -0.360505 -0.152182 -0.920259
vn -0.603233 -0.319327 -0.730849
vn -0.590483 -0.191976 -0.783885
vn -0.125851 -0.009880 -0.992000
vn -0.356321 -0.036454 -0.933652
vn -0.566399 -0.060941 -0.821875
vn 0.321530 -0.481014 -0.815625
vn 0.575572 0.153904 0.803137
vn 0.565196 0.318538 0.760978
vn 0.762946 0.269885 0.587431
vn 0.759421 0.131100 0.637254
vn 0.509386 0.614066 0.602868
vn 0.465308 0.736694 0.490685
vn 0.718610 0.612107 0.330037
vn 0.741954 0.512783 0.431923
vn 0.227117 0.657981 0.717968
vn 0.162919 0.783565 0.599569
vn 0.325383 0.344473 0.880604
vn 0.356132 0.167192 0.919357
vn -0.901722 -0.238060 0.360867
vn -0.787256 -0.362700 0.498676
vn -0.692850 -0.152182 0.704840
vn -0.420840 -0.319327 0.849073
vn -0.474459 -0.191976 0.859089
vn -0.854152 -0.009880 0.519930
vn -0.706785 -0.036454 0.706489
vn -0.518971 -0.060941 0.852617
vn -0.875822 -0.481014 0.039527
vn 0.645926 0.153904 -0.747725
vn 0.607371 0.318538 -0.727759
vn 0.392323 0.269885 -0.879344
vn 0.441584 0.131099 -0.887590
vn 0.466738 0.614066 -0.636458
vn 0.368005 0.736694 -0.567323
vn 0.152481 0.612106 -0.775935
vn 0.246061 0.512783 -0.822501
vn 0.644770 0.657981 -0.389014
vn 0.544708 0.783566 -0.298862
vn 0.779856 0.344473 -0.522651
vn 0.810325 0.167192 -0.561623
vn -0.984194 -0.117234 -0.132732
vn -0.968797 -0.214415 -0.124335
vn -0.971645 -0.188394 0.142876
vn -0.987338 -0.105840 0.118162
vn -0.910295 -0.402123 -0.098287
vn -0.867346 -0.491114 -0.080733
vn -0.879244 -0.413574 0.236402
vn -0.917368 -0.342845 0.202219
vn -0.817503 -0.423657 -0.390133
vn -0.762878 -0.516237 -0.389252
vn -0.895909 -0.224984 -0.383054
vn -0.918961 -0.121231 -0.375251
s 1
g Herb_LushGrass
f 12/12/1 2/2/2 7/7/3 11/11/4
f 10/10/5 5/5/6 3/3/7 9/9/8
f 11/11/4 7/7/3 5/5/6 10/10/5
f 6/6/9 10/10/5 9/9/8 4/4/10
f 8/8/11 11/11/4 10/10/5 6/6/9
f 1/1/12 12/12/1 11/11/4 8/8/11
s 2
f 24/13/13 14/14/14 19/15/15 23/16/16
f 22/17/17 17/18/18 15/19/19 21/20/20
f 23/16/16 19/15/15 17/18/18 22/17/17
f 18/21/21 22/17/17 21/20/20 16/22/22
f 20/23/23 23/16/16 22/17/17 18/21/21
f 13/24/24 24/13/13 23/16/16 20/23/23
s 3
f 25/25/25 32/26/26 42/27/27 43/28/28
f 28/29/29 26/30/30 39/31/31 40/32/32
f 30/33/33 28/29/29 40/32/32 41/34/34
f 32/26/26 30/33/33 41/34/34 42/27/27
f 35/35/35 34/36/36 27/37/37 29/38/38
f 36/39/39 35/35/35 29/38/38 31/40/40
f 37/41/41 36/39/39 31/40/40 33/42/42
f 38/43/43 37/41/41 33/42/42
f 40/32/32 39/31/31 34/36/36 35/35/35
f 41/34/34 40/32/32 35/35/35 36/39/39
f 42/27/27 41/34/34 36/39/39 37/41/41
f 43/28/28 42/27/27 37/41/41 38/43/43
s 5
f 50/44/44 51/45/45 49/46/46
f 51/45/45 52/47/47 46/48/48 49/46/46
f 44/49/49 48/50/50 51/45/45 50/44/44
f 48/50/50 45/51/51 52/47/47 51/45/45
f 50/44/44 49/46/46 47/52/52
s 6
f 64/53/53 54/54/54 59/55/55 63/56/56
f 62/57/57 57/58/58 55/59/59 61/60/60
f 63/56/56 59/55/55 57/58/58 62/57/57
f 58/61/61 62/57/57 61/60/60 56/62/62
f 60/63/63 63/56/56 62/57/57 58/61/61
f 53/64/64 64/53/53 63/56/56 60/63/63
s 7
f 71/65/65 72/66/66 70/67/67
f 72/66/66 73/68/68 67/69/69 70/67/67
f 65/70/70 69/71/71 72/66/66 71/65/65
f 69/71/71 66/72/72 73/68/68 72/66/66
f 71/65/65 70/67/67 68/73/73
s 8
f 85/74/74 75/75/75 80/76/76 84/77/77
f 83/78/78 78/79/79 76/80/80 82/81/81
f 84/77/77 80/76/76 78/79/79 83/78/78
f 79/82/82 83/78/78 82/81/81 77/83/83
f 81/84/84 84/77/77 83/78/78 79/82/82
f 74/85/85 85/74/74 84/77/77 81/84/84
s 9
f 97/86/86 87/87/87 92/88/88 96/89/89
f 95/90/90 90/91/91 88/92/92 94/93/93
f 96/89/89 92/88/88 90/91/91 95/90/90
f 91/94/94 95/90/90 94/93/93 89/95/95
f 93/96/96 96/89/89 95/90/90 91/94/94
f 86/97/97 97/86/86 96/89/89 93/96/96
s 10
f 109/98/98 108/99/99 104/100/100 99/101/101
f 107/102/102 106/103/103 100/104/104 102/105/105
f 108/99/99 107/102/102 102/105/105 104/100/100
f 103/106/106 101/107/107 106/103/103 107/102/102
f 105/108/108 103/106/106 107/102/102 108/99/99
f 98/109/109 105/108/108 108/99/99 109/98/98
s 12
f 121/110/110 120/111/111 116/112/112 111/113/113
f 119/114/114 118/115/115 112/116/116 114/117/117
f 120/111/111 119/114/114 114/117/117 116/112/112
f 115/118/118 113/119/119 118/115/115 119/114/114
f 117/120/120 115/118/118 119/114/114 120/111/111
f 110/121/121 117/120/120 120/111/111 121/110/110
s 14
f 122/122/122 140/123/123 139/124/124 129/125/125
f 125/126/126 137/127/127 136/128/128 123/129/129
f 127/130/130 138/131/131 137/127/127 125/126/126
f 129/125/125 139/124/124 138/131/131 127/130/130
f 132/132/132 126/133/133 124/134/134 131/135/135
f 133/136/136 128/137/137 126/133/133 132/132/132
f 134/138/138 130/139/139 128/137/137 133/136/136
f 135/140/140 130/139/139 134/138/138
f 137/127/127 132/132/132 131/135/135 136/128/128
f 138/131/131 133/136/136 132/132/132 137/127/127
f 139/124/124 134/138/138 133/136/136 138/131/131
f 140/123/123 135/140/140 134/138/138 139/124/124
s 17
f 147/141/141 146/142/142 148/143/143
f 148/143/143 146/142/142 143/144/144 149/145/145
f 141/146/146 147/141/141 148/143/143 145/147/147
f 145/147/147 148/143/143 149/145/145 142/148/148
f 147/141/141 144/149/149 146/142/142
s 18
f 161/150/150 160/151/151 156/152/152 151/153/153
f 159/154/154 158/155/155 152/156/156 154/157/157
f 160/151/151 159/154/154 154/157/157 156/152/152
f 155/158/158 153/159/159 158/155/155 159/154/154
f 157/160/160 155/158/158 159/154/154 160/151/151
f 150/161/161 157/160/160 160/151/151 161/150/150
s 20
f 168/162/162 167/163/163 169/164/164
f 169/164/164 167/163/163 164/165/165 170/166/166
f 162/167/167 168/162/162 169/164/164 166/168/168
f 166/168/168 169/164/164 170/166/166 163/169/169
f 168/162/162 165/170/170 167/163/163
s 21
f 182/171/171 181/172/172 177/173/173 172/174/174
f 180/175/175 179/176/176 173/177/177 175/178/178
f 181/172/172 180/175/175 175/178/178 177/173/173
f 176/179/179 174/180/180 179/176/176 180/175/175
f 178/181/181 176/179/179 180/175/175 181/172/172
f 171/182/182 178/181/181 181/172/172 182/171/171
s 23
f 194/183/183 193/184/184 189/185/185 184/186/186
f 192/187/187 191/188/188 185/189/189 187/190/190
f 193/184/184 192/187/187 187/190/190 189/185/185
f 188/191/191 186/192/192 191/188/188 192/187/187
f 190/193/193 188/191/191 192/187/187 193/184/184
f 183/194/194 190/193/193 193/184/184 194/183/183
